<svg width="200" height="200" viewBox="0 0 200 200" fill="none" xmlns="http://www.w3.org/2000/svg">
<circle cx="101" cy="100" r="92" fill="#FAE084"/>
<g clip-path="url(#clip0_3415_150)">
<path d="M96.8508 53.2556C96.2082 53.531 96.043 53.8431 96.043 54.7244C96.043 55.8443 96.2449 55.8994 100.541 55.8259C104.213 55.7708 104.415 55.7341 104.727 55.3669C105.168 54.8345 105.131 53.8798 104.654 53.4392C104.305 53.1271 103.919 53.0904 100.835 53.0353C98.2277 53.0169 97.2914 53.0537 96.8508 53.2556Z" fill="#FE6663"/>
<path d="M119.58 57.8281C119.36 58.0667 119.176 58.4706 119.176 58.7277C119.176 59.2785 119.764 60.0863 120.278 60.2515C120.737 60.3984 124.317 62.3995 125.033 62.8952C125.694 63.3726 126.722 63.391 127.126 62.9503C127.309 62.7667 127.438 62.3077 127.438 61.9406C127.438 61.0777 126.869 60.6187 123.582 58.8011C120.828 57.2956 120.223 57.1488 119.58 57.8281Z" fill="#FE6663"/>
<path d="M78.1427 58.9291C73.8466 61.2056 72.9286 62.1787 74.0669 63.2435C74.6544 63.7943 75.4438 63.7576 76.3251 63.115C76.7106 62.8212 77.9958 62.0869 79.1524 61.4626C81.9614 59.9755 82.347 59.4798 81.5208 58.4334C80.9517 57.7173 80.254 57.8091 78.1427 58.9291Z" fill="#FE6663"/>
<path d="M95.7681 60.6172C88.3692 61.5902 81.1356 64.7848 75.5177 69.5949C70.322 74.0379 66.595 79.1418 64.2083 85.0719C62.1521 90.2125 61.3442 94.4719 61.3442 100.182C61.3442 106.259 62.5927 111.748 65.1813 117.164C67.2192 121.423 69.661 124.857 73.0024 128.18C78.1063 133.265 84.1466 136.698 91.013 138.479C94.3177 139.324 97.1083 139.654 100.817 139.654C107.151 139.654 112.475 138.443 118.075 135.744C120.443 134.587 120.59 134.514 123.032 132.88C132.799 126.325 139.059 115.971 140.473 104.037C140.712 101.999 140.712 97.6848 140.455 95.4449C138.692 79.3437 126.612 65.5008 110.859 61.5168C106.417 60.3969 100.321 60.0297 95.7681 60.6172Z" fill="#2937B1"/>
<path fill-rule="evenodd" clip-rule="evenodd" d="M122.654 83.986C124.489 85.8214 124.489 88.7973 122.654 90.6328L97.2738 116.013C95.4383 117.848 92.4625 117.848 90.627 116.013L76.527 101.913C74.6915 100.077 74.6915 97.1014 76.527 95.266C78.3625 93.4305 81.3383 93.4305 83.1738 95.266L93.9504 106.043L116.007 83.986C117.842 82.1505 120.818 82.1505 122.654 83.986Z" fill="white"/>
<path d="M137.646 73.2137C136.911 73.8012 137.021 74.407 138.233 76.243C138.821 77.1426 139.555 78.4094 139.849 79.0703C140.565 80.6125 140.877 80.9062 141.74 80.9062C143.117 80.9062 143.392 79.8965 142.529 78.0605C141.942 76.8305 139.684 73.4156 139.225 73.0484C138.802 72.718 138.196 72.773 137.646 73.2137Z" fill="#FE6663"/>
<path d="M61.8581 73.8741C60.8299 75.0675 58.4065 79.6389 58.4065 80.3917C58.4065 81.7319 60.2241 82.3194 60.7932 81.1811C61.3256 80.0979 62.519 78.0417 63.3084 76.83C64.2631 75.3245 64.3549 74.5167 63.6206 73.9475C63.0147 73.4702 62.2252 73.4518 61.8581 73.8741Z" fill="#FE6663"/>
<path d="M145.613 95.3738C145.228 95.6859 145.209 95.796 145.209 99.5964C145.209 102.387 145.283 103.58 145.43 103.764C145.779 104.186 147.192 104.113 147.651 103.654C148.018 103.287 148.018 103.121 147.963 99.5414C147.908 96.1816 147.872 95.7777 147.559 95.4289C147.119 94.9515 146.164 94.9148 145.613 95.3738Z" fill="#FE6663"/>
<path d="M54.3674 96.3644C54.0002 96.7683 53.9818 96.9335 54.0369 100.477C54.092 103.818 54.1287 104.222 54.4408 104.571C54.7896 104.957 55.8912 105.103 56.3135 104.81C56.6623 104.571 56.9561 103.855 56.8459 103.488C56.7908 103.286 56.7357 101.67 56.7357 99.8894C56.7174 96.9703 56.6807 96.6214 56.3686 96.3093C55.8729 95.8136 54.8447 95.8503 54.3674 96.3644Z" fill="#FE6663"/>
<path d="M140.914 119.113C140.656 119.516 140.032 120.655 139.537 121.609C139.041 122.564 138.417 123.629 138.178 123.959C137.627 124.675 137.572 125.685 138.049 126.126C138.453 126.493 139.537 126.53 139.977 126.199C140.656 125.704 143.594 120.361 143.594 119.645C143.594 119.021 142.786 118.36 142.052 118.36C141.483 118.36 141.336 118.47 140.914 119.113Z" fill="#FE6663"/>
<path d="M59.2326 119.369C58.6083 119.975 58.6451 120.599 59.4162 122.086C60.5728 124.326 62.0966 126.804 62.4455 126.988C63.0146 127.3 63.6388 127.19 64.0611 126.749C64.722 126.033 64.5935 125.317 63.4001 123.353C62.7943 122.38 62.0783 121.168 61.8029 120.654C60.7931 118.892 60.0587 118.524 59.2326 119.369Z" fill="#FE6663"/>
<path d="M125.4 136.829C125.051 137.086 123.803 137.839 122.609 138.5C121.416 139.16 120.333 139.876 120.186 140.097C119.8 140.629 119.837 141.345 120.278 141.823C120.994 142.575 121.232 142.484 126.097 139.73C127.529 138.903 127.988 138.408 127.988 137.655C127.988 136.333 126.648 135.911 125.4 136.829Z" fill="#FE6663"/>
<path d="M74.8933 137.214C73.9754 138.298 74.2691 138.885 76.2703 140.079C78.6387 141.474 80.8969 142.594 81.4109 142.594C81.9801 142.594 82.641 141.951 82.641 141.382C82.641 140.629 82.3289 140.244 81.3008 139.73C80.7683 139.454 79.4648 138.72 78.4 138.077C76.3254 136.811 75.4258 136.609 74.8933 137.214Z" fill="#FE6663"/>
<path d="M97.1998 144.558C96.6491 145.09 96.6307 146.082 97.1631 146.559C97.512 146.871 97.9159 146.908 100.89 146.963C104.635 147.036 105.388 146.926 105.719 146.247C105.994 145.696 105.719 144.466 105.315 144.319C105.168 144.264 103.387 144.209 101.331 144.191C97.7139 144.154 97.5854 144.172 97.1998 144.558Z" fill="#FE6663"/>
</g>
<circle cx="100" cy="100" r="99" stroke="#2937B1" stroke-width="1.5" stroke-linecap="round" stroke-dasharray="8 8"/>
<defs>
<clipPath id="clip0_3415_150">
<rect width="94" height="94" fill="white" transform="translate(54 53)"/>
</clipPath>
</defs>
</svg>
