<svg width="200" height="200" viewBox="0 0 200 200" fill="none" xmlns="http://www.w3.org/2000/svg">
<circle cx="101" cy="100" r="92" fill="#FAE084"/>
<path d="M88.8828 62.5452H132.578C131.293 89.4084 131.293 116.281 131.293 143.166V143.327C122.818 143.431 88.8828 143.326 88.8828 143.326V62.5452Z" fill="white"/>
<circle cx="127.254" cy="70.4395" r="13.5859" fill="#2937B1"/>
<path d="M121.93 70.1916L125.666 73.9277L132.459 67.1348" stroke="white" stroke-width="3" stroke-linecap="round" stroke-linejoin="round"/>
<path d="M83.3113 79.2379C81.2098 79.8082 79.8023 80.967 76.7175 84.6458C75.6764 85.8966 74.3461 87.2946 73.787 87.7728L72.7266 88.6557V100.925V113.194L73.6134 113.782C75.6764 115.125 78.4334 117.072 82.0388 117.072C83.3498 117.072 84.8344 117.017 85.3357 116.962L86.4062 116.833V106.388L86.5897 96.6582L85.22 97.2836C83.7933 98.1849 82.349 99.1959 80.0933 99.3983C78.0303 99.5638 77.8182 99.5454 77.1627 98.9936C76.6036 98.497 76.6036 98.1096 77.182 97.5026C77.5483 97.098 77.8375 97.006 79.5341 96.8588C83.6408 96.4542 85.298 94.7994 86.2427 91.9667C86.3584 91.6724 86.4933 90.9168 86.5705 89.4269C86.6861 86.6862 86.319 86.6862 86.8781 86.2263C87.3408 85.8584 87.0214 85.7849 87.5805 85.8768C88.9494 86.0792 88.9494 85.3448 88.9494 91.7643C88.9494 96.9147 88.9879 97.5585 89.3157 98.2207C89.7013 99.0484 90.6653 99.913 91.3787 100.079C92.2848 100.299 94.2816 100.042 94.9564 99.5451C96.2482 98.607 96.2674 98.4782 96.2096 91.5436L96.1518 85.3448L95.5541 84.1492C94.8022 82.6592 93.7032 81.482 92.3536 80.6911C90.2714 79.4954 85.2971 78.7045 83.3113 79.2379Z" fill="#F4C8AD"/>
<path fill-rule="evenodd" clip-rule="evenodd" d="M115.963 59.0944C118.295 56.7995 120.773 55.4041 123.766 54.7432C124.61 54.5596 125.785 54.4862 127.713 54.5413C130.265 54.5963 130.595 54.633 132.248 55.2022C137.388 56.928 141.262 61.0588 142.713 66.328C143.263 68.3842 143.263 72.2764 142.694 74.3694C141.611 78.4268 138.967 81.9334 135.442 84.0264C134.689 84.4854 134.047 84.9444 134.047 85.0545C134.047 85.183 134.653 85.2932 135.663 85.3483C138.178 85.4952 139.793 86.5049 140.675 88.5245C141.207 89.7362 141.225 91.517 140.693 92.692L140.326 93.5366L141.207 94.4545C143.171 96.4924 143.171 99.6686 141.244 101.633C140.766 102.11 140.197 102.624 139.977 102.771C139.573 103.028 139.555 103.047 139.83 103.928C140.436 105.892 140.014 107.618 138.582 109.087C138.049 109.619 137.535 110.078 137.407 110.115C137.26 110.17 137.296 110.501 137.572 111.29C138.031 112.667 137.939 113.971 137.26 115.348C136.727 116.412 136.03 117.11 134.836 117.679L134.065 118.065L134.01 129.998L133.955 141.95L133.423 142.923C133.111 143.474 132.56 144.153 132.193 144.447C131.994 144.606 131.848 144.741 131.688 144.857C130.681 145.585 129.108 145.53 110.143 145.53C94.0602 145.512 89.9477 145.475 89.3969 145.273C88.2953 144.888 87.2855 143.951 86.7348 142.813L86.2207 141.767L86.1656 130.457L86.1105 119.166L84.7887 119.331C82.7508 119.589 78.932 119.368 77.3531 118.928C75.5906 118.414 73.3691 117.294 72.1023 116.247L71.0742 115.421H65.4012C60.0953 115.421 59.7098 115.403 59.3059 115.072L58.8652 114.723V100.825V86.9272L59.3059 86.5784C59.7098 86.2479 60.0953 86.2295 65.5848 86.2295H71.423L72.3961 85.2565C72.9469 84.7424 74.177 83.292 75.1684 82.062C76.1414 80.8319 77.4449 79.3815 78.0691 78.8307C80.052 77.0131 82.6773 75.9666 85.1559 75.9483H86.1105L86.1656 70.2018C86.2207 64.6022 86.2391 64.4553 86.6613 63.5924C86.9 63.1151 87.4691 62.3991 87.9281 61.9952C88.1661 61.784 88.3592 61.6075 88.5724 61.46C89.6752 60.6971 91.3146 60.71 102.469 60.71H114.311L115.963 59.0944ZM132.854 58.6905C132.046 58.2866 130.852 57.8459 130.191 57.6991C128.521 57.2952 125.657 57.3319 123.986 57.7725C119.708 58.8924 116.257 62.2155 114.806 66.5483C114.402 67.7416 114.329 68.3108 114.329 70.2569C114.311 72.1663 114.384 72.7721 114.733 73.9287C115.467 76.2788 116.348 77.7108 118.074 79.4366C120.681 82.0436 123.637 83.292 127.236 83.292C129.329 83.292 130.852 82.9616 132.633 82.117C137.296 79.9506 140.161 75.4526 140.161 70.3487C140.161 68.1639 139.83 66.6952 138.839 64.6573C137.498 61.9217 135.626 60.0307 132.854 58.6905ZM112.467 64.6628C112.625 64.1926 112.75 63.8184 112.75 63.7577C112.75 63.7026 109.776 63.6475 106.141 63.6475C100.963 63.6475 99.5312 63.7026 99.5496 63.8678C99.5496 63.9963 99.6965 64.5104 99.8801 65.0245L100.211 65.9424L106.086 65.9975L111.961 66.0342L112.364 64.9694C112.399 64.8643 112.434 64.7614 112.467 64.6628ZM93.2891 81.5846C92.059 80.483 90.8289 79.8955 88.7359 79.4366C86.3492 78.9225 84.6051 78.8307 83.4117 79.1612C81.282 79.767 80.1621 80.7034 77.1695 84.3385C75.866 85.9358 74.4156 87.5514 73.9566 87.937L73.0938 88.6346V100.917V113.218L74.0668 113.971C75.1684 114.87 77.1512 115.825 78.6016 116.174C79.7215 116.449 83.6137 116.504 85.266 116.284L86.3125 116.137V106.498V96.878L85.4312 97.5205C83.834 98.6588 81.8328 99.2831 78.9688 99.5401C77.7203 99.6502 77.5367 99.6135 77.0777 99.2647C76.6922 98.9526 76.582 98.7139 76.582 98.1815C76.582 97.135 76.9859 96.8963 78.9871 96.676C81.9062 96.3823 83.3383 95.8131 84.6051 94.4545C85.7984 93.151 86.1473 91.9393 86.2941 88.7448C86.4043 86.1561 86.4227 85.9909 86.8449 85.6604C87.359 85.2381 88.0934 85.2198 88.6074 85.6053C88.9562 85.8623 88.9746 86.1561 89.0664 91.8842C89.1582 97.7225 89.1766 97.9061 89.5805 98.6221C90.2598 99.7971 91.1043 100.274 92.5547 100.274C93.6195 100.274 93.8766 100.201 94.4457 99.7604C95.8227 98.7139 95.8594 98.5303 95.8594 92.0311C95.8594 86.8905 95.8227 86.1377 95.5105 85.1463C95.0332 83.6225 94.3723 82.5577 93.2891 81.5846ZM137.719 91.8659C138.545 90.5256 137.921 88.8366 136.47 88.4327C136.103 88.3409 135.35 88.2491 134.818 88.2491H133.845L133.9 90.5807L133.955 92.9307L135.259 92.9123C136.746 92.8756 137.223 92.6737 137.719 91.8659ZM70.3398 112.483V100.825V89.167H66.0254H61.7109V100.825V112.483H66.0254H70.3398ZM139.738 97.9795C139.738 97.3553 139.206 96.5291 138.582 96.1436C138.086 95.8315 137.645 95.7764 135.938 95.7764H133.863V98.0713V100.366H135.938C137.682 100.366 138.086 100.311 138.6 99.9991C139.206 99.6135 139.738 98.6955 139.738 97.9795ZM136.874 104.662C136.672 104.277 136.305 103.818 136.048 103.616C135.773 103.414 135.185 103.212 134.708 103.175L133.863 103.065V105.397V107.71H134.763C136.47 107.71 137.59 106.113 136.874 104.662ZM134.616 113.86C135.002 112.998 134.965 112.373 134.487 111.602C134.01 110.849 133.863 111.162 133.863 112.942C133.863 114.907 134.047 115.146 134.616 113.86ZM98.4113 68.6229C98.1176 68.4026 97.732 67.5397 97.2363 66.0159L96.4652 63.7393L93.6379 63.6842C90.9207 63.6475 90.7555 63.6659 90.1496 64.0698C89.1215 64.7491 89.048 65.2264 89.1031 71.2483L89.1582 76.5909L90.3516 76.903C93.4543 77.7291 96.043 79.7303 97.3832 82.3006C98.5215 84.4854 98.6133 85.1647 98.6133 90.544C98.6133 93.1877 98.6684 95.3909 98.7234 95.4459C98.8397 97.1045 98.393 100.811 95.6758 102.367L95.1617 102.643C93.7848 103.359 91.343 103.377 90.0027 102.661C89.6906 102.514 89.3602 102.386 89.25 102.386C89.1215 102.386 89.0664 108.279 89.0664 121.48C89.0664 139.806 89.0378 141.27 89.7524 141.932C89.8468 142.019 89.9541 142.093 90.0762 142.189L90.5902 142.593H110.014C124.298 142.593 129.567 142.538 129.898 142.373C130.155 142.262 130.522 141.95 130.687 141.693C130.999 141.234 131.018 139.637 131.073 113.677C131.091 98.5303 131.073 86.0459 131.036 85.9174C130.963 85.7706 130.742 85.7706 130.155 85.9174C128.723 86.2663 125.143 86.1561 123.435 85.6971C116.348 83.8428 111.465 77.6741 111.465 70.6057V68.9717H105.149C99.2559 68.9717 98.8152 68.9534 98.4113 68.6229Z" fill="#151515"/>
<path d="M105.682 132.404C104.672 132.753 103.662 133.928 103.387 135.066C102.946 136.92 104.103 138.958 105.902 139.454C106.802 139.711 113.356 139.711 114.274 139.454C115.063 139.233 116.128 138.371 116.514 137.636C116.918 136.847 117.028 135.763 116.789 134.882C116.514 133.836 115.32 132.606 114.311 132.33C113.209 132.018 106.6 132.073 105.682 132.404ZM113.815 135.286C114.164 135.635 114.072 136.296 113.631 136.608C113.025 137.03 107.15 137.03 106.545 136.608C106.104 136.296 106.012 135.635 106.361 135.286C106.673 134.974 113.503 134.974 113.815 135.286Z" fill="#151515"/>
<path d="M64.9787 91.5533C64.3912 91.994 64.2443 92.7467 64.5564 93.5178C65.0337 94.6377 66.3372 94.8397 67.2369 93.9584C67.9896 93.2057 67.9162 92.0858 67.0533 91.4248C66.5943 91.076 65.4927 91.1494 64.9787 91.5533Z" fill="#151515"/>
<path d="M133.918 89.9014C133.918 90.7643 133.955 91.1131 133.992 90.6725C134.029 90.2502 134.029 89.5526 133.992 89.1119C133.955 88.6897 133.918 89.0385 133.918 89.9014Z" fill="#969696"/>
<path d="M66.0254 89.2965L70.1562 89.3516L70.2113 100.789L70.248 112.209V100.734V89.2598H66.0621L61.8945 89.2414L66.0254 89.2965Z" fill="#969696"/>
<path d="M133.918 97.4287C133.918 98.2916 133.955 98.6405 133.992 98.1998C134.029 97.7776 134.029 97.0799 133.992 96.6393C133.955 96.217 133.918 96.5658 133.918 97.4287Z" fill="#969696"/>
<path d="M133.918 104.772C133.918 105.635 133.955 105.984 133.992 105.544C134.029 105.121 134.029 104.424 133.992 103.983C133.955 103.561 133.918 103.91 133.918 104.772Z" fill="#969696"/>
<path d="M133.918 112.392C133.918 113.089 133.955 113.365 133.992 112.979C134.029 112.612 134.029 112.024 133.992 111.694C133.955 111.382 133.918 111.676 133.918 112.392Z" fill="#969696"/>
<path d="M99.7148 63.9605C99.7148 64.0156 99.8617 64.5113 100.027 65.0621C100.284 65.8516 100.413 66.0352 100.743 66.0352H101.165L100.78 64.9336C100.504 64.1074 100.321 63.832 100.064 63.832C99.8801 63.832 99.7148 63.8871 99.7148 63.9605Z" fill="#C1C1C1"/>
<path d="M61.8945 100.826V112.301H66.0254H70.1562V100.826V89.3516H66.0254H61.8945V100.826ZM67.2188 91.4996C67.9898 92.1973 68.1 92.95 67.5492 93.7395C66.8148 94.8227 65.6031 94.9328 64.7219 93.9965C63.9508 93.152 64.2445 91.5914 65.2727 91.1875C66.007 90.8938 66.6496 90.9855 67.2188 91.4996Z" fill="#F4C8AD"/>
<path d="M108.381 139.785C109.262 139.821 110.749 139.821 111.685 139.785C112.622 139.766 111.906 139.73 110.088 139.73C108.27 139.73 107.499 139.766 108.381 139.785Z" fill="#C1C1C1"/>
<circle cx="100" cy="100" r="99" stroke="#2937B1" stroke-width="1.5" stroke-linecap="round" stroke-dasharray="8 8"/>
</svg>
