<?xml version="1.0" encoding="utf-8"?>
<!-- Generator: Adobe Illustrator 27.5.0, SVG Export Plug-In . SVG Version: 6.00 Build 0)  -->
<svg version="1.1" id="Layer_1" xmlns="http://www.w3.org/2000/svg" xmlns:xlink="http://www.w3.org/1999/xlink" x="0px" y="0px"
	 viewBox="0 0 3000 1500" style="enable-background:new 0 0 3000 1500;" xml:space="preserve">
<g>
	<rect style="fill:#16283B;" width="3000" height="1500"/>
	<g>
		<polygon style="fill:#264769;" points="136.632,1500 95.385,1428.882 0.695,1428.882 0,1430.078 0,1500 		"/>
		<polygon style="fill:#264769;" points="442.335,1500 401.075,1428.882 306.385,1428.882 265.125,1500 		"/>
		<polygon style="fill:#264769;" points="748.022,1500 706.762,1428.882 612.072,1428.882 570.825,1500 		"/>
		<polygon style="fill:#264769;" points="1053.71,1500 1012.45,1428.882 917.76,1428.882 876.512,1500 		"/>
		<polygon style="fill:#264769;" points="1359.4,1500 1318.152,1428.882 1223.45,1428.882 1182.202,1500 		"/>
		<polygon style="fill:#264769;" points="1665.087,1500 1623.852,1428.882 1529.15,1428.882 1487.902,1500 		"/>
		<polygon style="fill:#264769;" points="1970.777,1500 1929.54,1428.882 1834.84,1428.882 1793.58,1500 		"/>
		<polygon style="fill:#264769;" points="2276.49,1500 2235.229,1428.882 2140.527,1428.882 2099.292,1500 		"/>
		<polygon style="fill:#264769;" points="2582.152,1500 2540.917,1428.882 2446.215,1428.882 2404.979,1500 		"/>
		<polygon style="fill:#264769;" points="2887.865,1500 2846.607,1428.882 2751.927,1428.882 2710.67,1500 		"/>
		<polygon style="fill:#264769;" points="106.19,1421.387 153.54,1339.77 248.23,1339.77 295.58,1421.387 		"/>
		<polygon style="fill:#264769;" points="411.89,1421.387 459.227,1339.77 553.917,1339.77 601.27,1421.387 		"/>
		<polygon style="fill:#264769;" points="717.577,1421.387 764.917,1339.77 859.607,1339.77 906.957,1421.387 		"/>
		<polygon style="fill:#264769;" points="1023.267,1421.387 1070.605,1339.77 1165.295,1339.77 1212.647,1421.387 		"/>
		<polygon style="fill:#264769;" points="1328.955,1421.387 1376.305,1339.77 1470.995,1339.77 1518.335,1421.387 		"/>
		<polygon style="fill:#264769;" points="1634.642,1421.387 1682.007,1339.77 1776.685,1339.77 1824.022,1421.387 		"/>
		<polygon style="fill:#264769;" points="1940.332,1421.387 1987.695,1339.77 2082.372,1339.77 2129.737,1421.387 		"/>
		<polygon style="fill:#264769;" points="2246.045,1421.387 2293.385,1339.77 2388.062,1339.77 2435.425,1421.387 		"/>
		<polygon style="fill:#264769;" points="2551.732,1421.387 2599.072,1339.77 2693.75,1339.77 2741.112,1421.387 		"/>
		<polygon style="fill:#264769;" points="3000,1340.723 2999.462,1339.77 2904.76,1339.77 2857.422,1421.387 3000,1421.387 		"/>
		<polygon style="fill:#264769;" points="0,1332.3 142.725,1332.3 95.385,1250.682 0.695,1250.682 0,1251.88 		"/>
		<polygon style="fill:#264769;" points="259.032,1332.3 306.385,1250.682 401.075,1250.682 448.425,1332.3 		"/>
		<polygon style="fill:#264769;" points="564.735,1332.3 612.072,1250.682 706.762,1250.682 754.115,1332.3 		"/>
		<polygon style="fill:#264769;" points="870.422,1332.3 917.76,1250.682 1012.45,1250.682 1059.802,1332.3 		"/>
		<polygon style="fill:#264769;" points="1176.11,1332.3 1223.45,1250.682 1318.152,1250.682 1365.49,1332.3 		"/>
		<polygon style="fill:#264769;" points="1481.8,1332.3 1529.15,1250.682 1623.852,1250.682 1671.192,1332.3 		"/>
		<polygon style="fill:#264769;" points="1787.5,1332.3 1834.84,1250.682 1929.54,1250.682 1976.88,1332.3 		"/>
		<polygon style="fill:#264769;" points="2093.187,1332.3 2140.527,1250.682 2235.229,1250.682 2282.567,1332.3 		"/>
		<polygon style="fill:#264769;" points="2398.877,1332.3 2446.215,1250.682 2540.917,1250.682 2588.257,1332.3 		"/>
		<polygon style="fill:#264769;" points="2704.565,1332.3 2751.927,1250.682 2846.607,1250.682 2893.945,1332.3 		"/>
		<polygon style="fill:#264769;" points="106.19,1243.188 153.54,1161.573 248.23,1161.573 295.58,1243.188 		"/>
		<polygon style="fill:#264769;" points="411.89,1243.188 459.227,1161.573 553.917,1161.573 601.27,1243.188 		"/>
		<polygon style="fill:#264769;" points="717.577,1243.188 764.917,1161.573 859.607,1161.573 906.957,1243.188 		"/>
		<polygon style="fill:#264769;" points="1023.267,1243.188 1070.605,1161.573 1165.295,1161.573 1212.647,1243.188 		"/>
		<polygon style="fill:#264769;" points="1328.955,1243.188 1376.305,1161.573 1470.995,1161.573 1518.335,1243.188 		"/>
		<polygon style="fill:#264769;" points="1634.642,1243.188 1682.007,1161.573 1776.685,1161.573 1824.022,1243.188 		"/>
		<polygon style="fill:#264769;" points="1940.332,1243.188 1987.695,1161.573 2082.372,1161.573 2129.737,1243.188 		"/>
		<polygon style="fill:#264769;" points="2246.045,1243.188 2293.385,1161.573 2388.062,1161.573 2435.425,1243.188 		"/>
		<polygon style="fill:#264769;" points="2551.732,1243.188 2599.072,1161.573 2693.75,1161.573 2741.112,1243.188 		"/>
		<polygon style="fill:#264769;" points="3000,1162.525 2999.462,1161.573 2904.76,1161.573 2857.422,1243.188 3000,1243.188 		"/>
		<polygon style="fill:#264769;" points="0,1154.078 142.725,1154.078 95.385,1072.46 0.695,1072.46 0,1073.657 		"/>
		<polygon style="fill:#264769;" points="259.032,1154.078 306.385,1072.46 401.075,1072.46 448.425,1154.078 		"/>
		<polygon style="fill:#264769;" points="564.735,1154.078 612.072,1072.46 706.762,1072.46 754.115,1154.078 		"/>
		<polygon style="fill:#264769;" points="870.422,1154.078 917.76,1072.46 1012.45,1072.46 1059.802,1154.078 		"/>
		<polygon style="fill:#264769;" points="1176.11,1154.078 1223.45,1072.46 1318.152,1072.46 1365.49,1154.078 		"/>
		<polygon style="fill:#264769;" points="1481.8,1154.078 1529.15,1072.46 1623.852,1072.46 1671.192,1154.078 		"/>
		<polygon style="fill:#264769;" points="1787.5,1154.078 1834.84,1072.46 1929.54,1072.46 1976.88,1154.078 		"/>
		<polygon style="fill:#264769;" points="2093.187,1154.078 2140.527,1072.46 2235.229,1072.46 2282.567,1154.078 		"/>
		<polygon style="fill:#264769;" points="2398.877,1154.078 2446.215,1072.46 2540.917,1072.46 2588.257,1154.078 		"/>
		<polygon style="fill:#264769;" points="2704.565,1154.078 2751.927,1072.46 2846.607,1072.46 2893.945,1154.078 		"/>
		<polygon style="fill:#264769;" points="106.19,1064.965 153.54,983.375 248.23,983.375 295.58,1064.965 		"/>
		<polygon style="fill:#264769;" points="411.89,1064.965 459.227,983.375 553.917,983.375 601.27,1064.965 		"/>
		<polygon style="fill:#264769;" points="717.577,1064.965 764.917,983.375 859.607,983.375 906.957,1064.965 		"/>
		<polygon style="fill:#264769;" points="1023.267,1064.965 1070.605,983.375 1165.295,983.375 1212.647,1064.965 		"/>
		<polygon style="fill:#264769;" points="1328.955,1064.965 1376.305,983.375 1470.995,983.375 1518.335,1064.965 		"/>
		<polygon style="fill:#264769;" points="1634.642,1064.965 1682.007,983.375 1776.685,983.375 1824.022,1064.965 		"/>
		<polygon style="fill:#264769;" points="1940.332,1064.965 1987.695,983.375 2082.372,983.375 2129.737,1064.965 		"/>
		<polygon style="fill:#264769;" points="2246.045,1064.965 2293.385,983.375 2388.062,983.375 2435.425,1064.965 		"/>
		<polygon style="fill:#264769;" points="2551.732,1064.965 2599.072,983.375 2693.75,983.375 2741.112,1064.965 		"/>
		<polygon style="fill:#264769;" points="3000,984.302 2999.462,983.375 2904.76,983.375 2857.422,1064.965 3000,1064.965 		"/>
		<polygon style="fill:#264769;" points="0,975.88 142.725,975.88 95.385,894.263 0.695,894.263 0,895.46 		"/>
		<polygon style="fill:#264769;" points="259.032,975.88 306.385,894.263 401.075,894.263 448.425,975.88 		"/>
		<polygon style="fill:#264769;" points="564.735,975.88 612.072,894.263 706.762,894.263 754.115,975.88 		"/>
		<polygon style="fill:#264769;" points="870.422,975.88 917.76,894.263 1012.45,894.263 1059.802,975.88 		"/>
		<polygon style="fill:#264769;" points="1176.11,975.88 1223.45,894.263 1318.152,894.263 1365.49,975.88 		"/>
		<polygon style="fill:#264769;" points="1481.8,975.88 1529.15,894.263 1623.852,894.263 1671.192,975.88 		"/>
		<polygon style="fill:#264769;" points="1787.5,975.88 1834.84,894.263 1929.54,894.263 1976.88,975.88 		"/>
		<polygon style="fill:#264769;" points="2093.187,975.88 2140.527,894.263 2235.229,894.263 2282.567,975.88 		"/>
		<polygon style="fill:#264769;" points="2398.877,975.88 2446.215,894.263 2540.917,894.263 2588.257,975.88 		"/>
		<polygon style="fill:#264769;" points="2704.565,975.88 2751.927,894.263 2846.607,894.263 2893.945,975.88 		"/>
		<polygon style="fill:#264769;" points="106.19,886.768 153.54,805.153 248.23,805.153 295.58,886.768 		"/>
		<polygon style="fill:#264769;" points="411.89,886.768 459.227,805.153 553.917,805.153 601.27,886.768 		"/>
		<polygon style="fill:#264769;" points="717.577,886.768 764.917,805.153 859.607,805.153 906.957,886.768 		"/>
		<polygon style="fill:#264769;" points="1023.267,886.768 1070.605,805.153 1165.295,805.153 1212.647,886.768 		"/>
		<polygon style="fill:#264769;" points="1328.955,886.768 1376.305,805.153 1470.995,805.153 1518.335,886.768 		"/>
		<polygon style="fill:#264769;" points="1634.642,886.768 1682.007,805.153 1776.685,805.153 1824.022,886.768 		"/>
		<polygon style="fill:#264769;" points="1940.332,886.768 1987.695,805.153 2082.372,805.153 2129.737,886.768 		"/>
		<polygon style="fill:#264769;" points="2246.045,886.768 2293.385,805.153 2388.062,805.153 2435.425,886.768 		"/>
		<polygon style="fill:#264769;" points="2551.732,886.768 2599.072,805.153 2693.75,805.153 2741.112,886.768 		"/>
		<polygon style="fill:#264769;" points="3000,806.102 2999.462,805.153 2904.76,805.153 2857.422,886.768 3000,886.768 		"/>
		<polygon style="fill:#264769;" points="0,797.657 142.725,797.657 95.385,716.04 0.695,716.04 0,717.237 		"/>
		<polygon style="fill:#264769;" points="259.032,797.657 306.385,716.04 401.075,716.04 448.425,797.657 		"/>
		<polygon style="fill:#264769;" points="564.735,797.657 612.072,716.04 706.762,716.04 754.115,797.657 		"/>
		<polygon style="fill:#264769;" points="870.422,797.657 917.76,716.04 1012.45,716.04 1059.802,797.657 		"/>
		<polygon style="fill:#264769;" points="1176.11,797.657 1223.45,716.04 1318.152,716.04 1365.49,797.657 		"/>
		<polygon style="fill:#264769;" points="1481.8,797.657 1529.15,716.04 1623.852,716.04 1671.192,797.657 		"/>
		<polygon style="fill:#264769;" points="1787.5,797.657 1834.84,716.04 1929.54,716.04 1976.88,797.657 		"/>
		<polygon style="fill:#264769;" points="2093.187,797.657 2140.527,716.04 2235.229,716.04 2282.567,797.657 		"/>
		<polygon style="fill:#264769;" points="2398.877,797.657 2446.215,716.04 2540.917,716.04 2588.257,797.657 		"/>
		<polygon style="fill:#264769;" points="2704.565,797.657 2751.927,716.04 2846.607,716.04 2893.945,797.657 		"/>
		<polygon style="fill:#264769;" points="106.19,708.557 153.54,626.94 248.23,626.94 295.58,708.557 		"/>
		<polygon style="fill:#264769;" points="411.89,708.557 459.227,626.94 553.917,626.94 601.27,708.557 		"/>
		<polygon style="fill:#264769;" points="717.577,708.557 764.917,626.94 859.607,626.94 906.957,708.557 		"/>
		<polygon style="fill:#264769;" points="1023.267,708.557 1070.605,626.94 1165.295,626.94 1212.647,708.557 		"/>
		<polygon style="fill:#264769;" points="1328.955,708.557 1376.305,626.94 1470.995,626.94 1518.335,708.557 		"/>
		<polygon style="fill:#264769;" points="1634.642,708.557 1682.007,626.94 1776.685,626.94 1824.022,708.557 		"/>
		<polygon style="fill:#264769;" points="1940.332,708.557 1987.695,626.94 2082.372,626.94 2129.737,708.557 		"/>
		<polygon style="fill:#264769;" points="2246.045,708.557 2293.385,626.94 2388.062,626.94 2435.425,708.557 		"/>
		<polygon style="fill:#264769;" points="2551.732,708.557 2599.072,626.94 2693.75,626.94 2741.112,708.557 		"/>
		<polygon style="fill:#264769;" points="3000,627.88 2999.462,626.94 2904.76,626.94 2857.422,708.557 3000,708.557 		"/>
		<polygon style="fill:#264769;" points="0,619.445 142.725,619.445 95.385,537.83 0.695,537.83 0,539.025 		"/>
		<polygon style="fill:#264769;" points="259.032,619.445 306.385,537.83 401.075,537.83 448.425,619.445 		"/>
		<polygon style="fill:#264769;" points="564.735,619.445 612.072,537.83 706.762,537.83 754.115,619.445 		"/>
		<polygon style="fill:#264769;" points="870.422,619.445 917.76,537.83 1012.45,537.83 1059.802,619.445 		"/>
		<polygon style="fill:#264769;" points="1176.11,619.445 1223.45,537.83 1318.152,537.83 1365.49,619.445 		"/>
		<polygon style="fill:#264769;" points="1481.8,619.445 1529.15,537.83 1623.852,537.83 1671.192,619.445 		"/>
		<polygon style="fill:#264769;" points="1787.5,619.445 1834.84,537.83 1929.54,537.83 1976.88,619.445 		"/>
		<polygon style="fill:#264769;" points="2093.187,619.445 2140.527,537.83 2235.229,537.83 2282.567,619.445 		"/>
		<polygon style="fill:#264769;" points="2398.877,619.445 2446.215,537.83 2540.917,537.83 2588.257,619.445 		"/>
		<polygon style="fill:#264769;" points="2704.565,619.445 2751.927,537.83 2846.607,537.83 2893.945,619.445 		"/>
		<polygon style="fill:#264769;" points="106.19,530.347 153.54,448.73 248.23,448.73 295.58,530.347 		"/>
		<polygon style="fill:#264769;" points="411.89,530.347 459.227,448.73 553.917,448.73 601.27,530.347 		"/>
		<polygon style="fill:#264769;" points="717.577,530.347 764.917,448.73 859.607,448.73 906.957,530.347 		"/>
		<polygon style="fill:#264769;" points="1023.267,530.347 1070.605,448.73 1165.295,448.73 1212.647,530.347 		"/>
		<polygon style="fill:#264769;" points="1328.955,530.347 1376.305,448.73 1470.995,448.73 1518.335,530.347 		"/>
		<polygon style="fill:#264769;" points="1634.642,530.347 1682.007,448.73 1776.685,448.73 1824.022,530.347 		"/>
		<polygon style="fill:#264769;" points="1940.332,530.347 1987.695,448.73 2082.372,448.73 2129.737,530.347 		"/>
		<polygon style="fill:#264769;" points="2246.045,530.347 2293.385,448.73 2388.062,448.73 2435.425,530.347 		"/>
		<polygon style="fill:#264769;" points="2551.732,530.347 2599.072,448.73 2693.75,448.73 2741.112,530.347 		"/>
		<polygon style="fill:#264769;" points="3000,449.67 2999.462,448.73 2904.76,448.73 2857.422,530.347 3000,530.347 		"/>
		<polygon style="fill:#264769;" points="0,441.235 142.725,441.235 95.385,359.633 0.695,359.633 0,360.828 		"/>
		<polygon style="fill:#264769;" points="259.032,441.235 306.385,359.633 401.075,359.633 448.425,441.235 		"/>
		<polygon style="fill:#264769;" points="564.735,441.235 612.072,359.633 706.762,359.633 754.115,441.235 		"/>
		<polygon style="fill:#264769;" points="870.422,441.235 917.76,359.633 1012.45,359.633 1059.802,441.235 		"/>
		<polygon style="fill:#264769;" points="1176.11,441.235 1223.45,359.633 1318.152,359.633 1365.49,441.235 		"/>
		<polygon style="fill:#264769;" points="1481.8,441.235 1529.15,359.633 1623.852,359.633 1671.192,441.235 		"/>
		<polygon style="fill:#264769;" points="1787.5,441.235 1834.84,359.633 1929.54,359.633 1976.88,441.235 		"/>
		<polygon style="fill:#264769;" points="2093.187,441.235 2140.527,359.633 2235.229,359.633 2282.567,441.235 		"/>
		<polygon style="fill:#264769;" points="2398.877,441.235 2446.215,359.633 2540.917,359.633 2588.257,441.235 		"/>
		<polygon style="fill:#264769;" points="2704.565,441.235 2751.927,359.633 2846.607,359.633 2893.945,441.235 		"/>
		<polygon style="fill:#264769;" points="106.19,352.135 153.54,270.52 248.23,270.52 295.58,352.135 		"/>
		<polygon style="fill:#264769;" points="411.89,352.135 459.227,270.52 553.917,270.52 601.27,352.135 		"/>
		<polygon style="fill:#264769;" points="717.577,352.135 764.917,270.52 859.607,270.52 906.957,352.135 		"/>
		<polygon style="fill:#264769;" points="1023.267,352.135 1070.605,270.52 1165.295,270.52 1212.647,352.135 		"/>
		<polygon style="fill:#264769;" points="1328.955,352.135 1376.305,270.52 1470.995,270.52 1518.335,352.135 		"/>
		<polygon style="fill:#264769;" points="1634.642,352.135 1682.007,270.52 1776.685,270.52 1824.022,352.135 		"/>
		<polygon style="fill:#264769;" points="1940.332,352.135 1987.695,270.52 2082.372,270.52 2129.737,352.135 		"/>
		<polygon style="fill:#264769;" points="2246.045,352.135 2293.385,270.52 2388.062,270.52 2435.425,352.135 		"/>
		<polygon style="fill:#264769;" points="2551.732,352.135 2599.072,270.52 2693.75,270.52 2741.112,352.135 		"/>
		<polygon style="fill:#264769;" points="3000,271.46 2999.462,270.52 2904.76,270.52 2857.422,352.135 3000,352.135 		"/>
		<polygon style="fill:#264769;" points="0,263.025 142.725,263.025 95.385,181.408 0.695,181.408 0,182.618 		"/>
		<polygon style="fill:#264769;" points="259.032,263.025 306.385,181.408 401.075,181.408 448.425,263.025 		"/>
		<polygon style="fill:#264769;" points="564.735,263.025 612.072,181.408 706.762,181.408 754.115,263.025 		"/>
		<polygon style="fill:#264769;" points="870.422,263.025 917.76,181.408 1012.45,181.408 1059.802,263.025 		"/>
		<polygon style="fill:#264769;" points="1176.11,263.025 1223.45,181.408 1318.152,181.408 1365.49,263.025 		"/>
		<polygon style="fill:#264769;" points="1481.8,263.025 1529.15,181.408 1623.852,181.408 1671.192,263.025 		"/>
		<polygon style="fill:#264769;" points="1787.5,263.025 1834.84,181.408 1929.54,181.408 1976.88,263.025 		"/>
		<polygon style="fill:#264769;" points="2093.187,263.025 2140.527,181.408 2235.229,181.408 2282.567,263.025 		"/>
		<polygon style="fill:#264769;" points="2398.877,263.025 2446.215,181.408 2540.917,181.408 2588.257,263.025 		"/>
		<polygon style="fill:#264769;" points="2704.565,263.025 2751.927,181.408 2846.607,181.408 2893.945,263.025 		"/>
		<polygon style="fill:#264769;" points="106.19,173.925 153.54,92.31 248.23,92.31 295.58,173.925 		"/>
		<polygon style="fill:#264769;" points="411.89,173.925 459.227,92.31 553.917,92.31 601.27,173.925 		"/>
		<polygon style="fill:#264769;" points="717.577,173.925 764.917,92.31 859.607,92.31 906.957,173.925 		"/>
		<polygon style="fill:#264769;" points="1023.267,173.925 1070.605,92.31 1165.295,92.31 1212.647,173.925 		"/>
		<polygon style="fill:#264769;" points="1328.955,173.925 1376.305,92.31 1470.995,92.31 1518.335,173.925 		"/>
		<polygon style="fill:#264769;" points="1634.642,173.925 1682.007,92.31 1776.685,92.31 1824.022,173.925 		"/>
		<polygon style="fill:#264769;" points="1940.332,173.925 1987.695,92.31 2082.372,92.31 2129.737,173.925 		"/>
		<polygon style="fill:#264769;" points="2246.045,173.925 2293.385,92.31 2388.062,92.31 2435.425,173.925 		"/>
		<polygon style="fill:#264769;" points="2551.732,173.925 2599.072,92.31 2693.75,92.31 2741.112,173.925 		"/>
		<polygon style="fill:#264769;" points="3000,93.25 2999.462,92.31 2904.76,92.31 2857.422,173.925 3000,173.925 		"/>
		<polygon style="fill:#264769;" points="0,84.815 142.725,84.815 95.385,3.198 0.695,3.198 0,4.408 		"/>
		<polygon style="fill:#264769;" points="259.032,84.815 306.385,3.198 401.075,3.198 448.425,84.815 		"/>
		<polygon style="fill:#264769;" points="564.735,84.815 612.072,3.198 706.762,3.198 754.115,84.815 		"/>
		<polygon style="fill:#264769;" points="870.422,84.815 917.76,3.198 1012.45,3.198 1059.802,84.815 		"/>
		<polygon style="fill:#264769;" points="1176.11,84.815 1223.45,3.198 1318.152,3.198 1365.49,84.815 		"/>
		<polygon style="fill:#264769;" points="1481.8,84.815 1529.15,3.198 1623.852,3.198 1671.192,84.815 		"/>
		<polygon style="fill:#264769;" points="1787.5,84.815 1834.84,3.198 1929.54,3.198 1976.88,84.815 		"/>
		<polygon style="fill:#264769;" points="2093.187,84.815 2140.527,3.198 2235.229,3.198 2282.567,84.815 		"/>
		<polygon style="fill:#264769;" points="2398.877,84.815 2446.215,3.198 2540.917,3.198 2588.257,84.815 		"/>
		<polygon style="fill:#264769;" points="2704.565,84.815 2751.927,3.198 2846.607,3.198 2893.945,84.815 		"/>
		<polygon style="fill:#1D354F;" points="249.987,1500 295.58,1421.387 106.19,1421.387 151.795,1500 		"/>
		<polygon style="fill:#1D354F;" points="555.677,1500 601.27,1421.387 411.89,1421.387 457.482,1500 		"/>
		<polygon style="fill:#1D354F;" points="861.365,1500 906.957,1421.387 717.577,1421.387 763.172,1500 		"/>
		<polygon style="fill:#1D354F;" points="1167.052,1500 1212.647,1421.387 1023.267,1421.387 1068.86,1500 		"/>
		<polygon style="fill:#1D354F;" points="1472.742,1500 1518.335,1421.387 1328.955,1421.387 1374.547,1500 		"/>
		<polygon style="fill:#1D354F;" points="1778.442,1500 1824.022,1421.387 1634.642,1421.387 1680.25,1500 		"/>
		<polygon style="fill:#1D354F;" points="2084.13,1500 2129.737,1421.387 1940.332,1421.387 1985.937,1500 		"/>
		<polygon style="fill:#1D354F;" points="2389.82,1500 2435.425,1421.387 2246.045,1421.387 2291.625,1500 		"/>
		<polygon style="fill:#1D354F;" points="2695.507,1500 2741.112,1421.387 2551.732,1421.387 2597.315,1500 		"/>
		<polygon style="fill:#1D354F;" points="3000,1500 3000,1421.387 2857.422,1421.387 2903.002,1500 		"/>
		<polygon style="fill:#1D354F;" points="0,1332.3 0,1412.695 0.695,1413.915 95.385,1413.915 142.725,1332.3 		"/>
		<polygon style="fill:#1D354F;" points="259.032,1332.3 306.385,1413.915 401.075,1413.915 448.425,1332.3 		"/>
		<polygon style="fill:#1D354F;" points="564.735,1332.3 612.072,1413.915 706.762,1413.915 754.115,1332.3 		"/>
		<polygon style="fill:#1D354F;" points="870.422,1332.3 917.76,1413.915 1012.45,1413.915 1059.802,1332.3 		"/>
		<polygon style="fill:#1D354F;" points="1176.11,1332.3 1223.45,1413.915 1318.152,1413.915 1365.49,1332.3 		"/>
		<polygon style="fill:#1D354F;" points="1481.8,1332.3 1529.15,1413.915 1623.852,1413.915 1671.192,1332.3 		"/>
		<polygon style="fill:#1D354F;" points="1787.5,1332.3 1834.84,1413.915 1929.54,1413.915 1976.88,1332.3 		"/>
		<polygon style="fill:#1D354F;" points="2093.187,1332.3 2140.527,1413.915 2235.229,1413.915 2282.567,1332.3 		"/>
		<polygon style="fill:#1D354F;" points="2398.877,1332.3 2446.215,1413.915 2540.917,1413.915 2588.257,1332.3 		"/>
		<polygon style="fill:#1D354F;" points="2704.565,1332.3 2751.927,1413.915 2846.607,1413.915 2893.945,1332.3 		"/>
		<polygon style="fill:#1D354F;" points="106.19,1243.188 153.54,1324.805 248.23,1324.805 295.58,1243.188 		"/>
		<polygon style="fill:#1D354F;" points="411.89,1243.188 459.227,1324.805 553.917,1324.805 601.27,1243.188 		"/>
		<polygon style="fill:#1D354F;" points="717.577,1243.188 764.917,1324.805 859.607,1324.805 906.957,1243.188 		"/>
		<polygon style="fill:#1D354F;" points="1023.267,1243.188 1070.605,1324.805 1165.295,1324.805 1212.647,1243.188 		"/>
		<polygon style="fill:#1D354F;" points="1328.955,1243.188 1376.305,1324.805 1470.995,1324.805 1518.335,1243.188 		"/>
		<polygon style="fill:#1D354F;" points="1634.642,1243.188 1682.007,1324.805 1776.685,1324.805 1824.022,1243.188 		"/>
		<polygon style="fill:#1D354F;" points="1940.332,1243.188 1987.695,1324.805 2082.372,1324.805 2129.737,1243.188 		"/>
		<polygon style="fill:#1D354F;" points="2246.045,1243.188 2293.385,1324.805 2388.062,1324.805 2435.425,1243.188 		"/>
		<polygon style="fill:#1D354F;" points="2551.732,1243.188 2599.072,1324.805 2693.75,1324.805 2741.112,1243.188 		"/>
		<polygon style="fill:#1D354F;" points="3000,1243.188 2857.422,1243.188 2904.76,1324.805 2999.462,1324.805 3000,1323.853 		"/>
		<polygon style="fill:#1D354F;" points="0,1154.078 0,1234.498 0.695,1235.693 95.385,1235.693 142.725,1154.078 		"/>
		<polygon style="fill:#1D354F;" points="259.032,1154.078 306.385,1235.693 401.075,1235.693 448.425,1154.078 		"/>
		<polygon style="fill:#1D354F;" points="564.735,1154.078 612.072,1235.693 706.762,1235.693 754.115,1154.078 		"/>
		<polygon style="fill:#1D354F;" points="870.422,1154.078 917.76,1235.693 1012.45,1235.693 1059.802,1154.078 		"/>
		<polygon style="fill:#1D354F;" points="1176.11,1154.078 1223.45,1235.693 1318.152,1235.693 1365.49,1154.078 		"/>
		<polygon style="fill:#1D354F;" points="1481.8,1154.078 1529.15,1235.693 1623.852,1235.693 1671.192,1154.078 		"/>
		<polygon style="fill:#1D354F;" points="1787.5,1154.078 1834.84,1235.693 1929.54,1235.693 1976.88,1154.078 		"/>
		<polygon style="fill:#1D354F;" points="2093.187,1154.078 2140.527,1235.693 2235.229,1235.693 2282.567,1154.078 		"/>
		<polygon style="fill:#1D354F;" points="2398.877,1154.078 2446.215,1235.693 2540.917,1235.693 2588.257,1154.078 		"/>
		<polygon style="fill:#1D354F;" points="2704.565,1154.078 2751.927,1235.693 2846.607,1235.693 2893.945,1154.078 		"/>
		<polygon style="fill:#1D354F;" points="106.19,1064.965 153.54,1146.608 248.23,1146.608 295.58,1064.965 		"/>
		<polygon style="fill:#1D354F;" points="411.89,1064.965 459.227,1146.608 553.917,1146.608 601.27,1064.965 		"/>
		<polygon style="fill:#1D354F;" points="717.577,1064.965 764.917,1146.608 859.607,1146.608 906.957,1064.965 		"/>
		<polygon style="fill:#1D354F;" points="1023.267,1064.965 1070.605,1146.608 1165.295,1146.608 1212.647,1064.965 		"/>
		<polygon style="fill:#1D354F;" points="1328.955,1064.965 1376.305,1146.608 1470.995,1146.608 1518.335,1064.965 		"/>
		<polygon style="fill:#1D354F;" points="1634.642,1064.965 1682.007,1146.608 1776.685,1146.608 1824.022,1064.965 		"/>
		<polygon style="fill:#1D354F;" points="1940.332,1064.965 1987.695,1146.608 2082.372,1146.608 2129.737,1064.965 		"/>
		<polygon style="fill:#1D354F;" points="2246.045,1064.965 2293.385,1146.608 2388.062,1146.608 2435.425,1064.965 		"/>
		<polygon style="fill:#1D354F;" points="2551.732,1064.965 2599.072,1146.608 2693.75,1146.608 2741.112,1064.965 		"/>
		<polygon style="fill:#1D354F;" points="3000,1064.965 2857.422,1064.965 2904.76,1146.608 2999.462,1146.608 3000,1145.655 		"/>
		<polygon style="fill:#1D354F;" points="0,975.88 0,1056.3 0.695,1057.495 95.385,1057.495 142.725,975.88 		"/>
		<polygon style="fill:#1D354F;" points="259.032,975.88 306.385,1057.495 401.075,1057.495 448.425,975.88 		"/>
		<polygon style="fill:#1D354F;" points="564.735,975.88 612.072,1057.495 706.762,1057.495 754.115,975.88 		"/>
		<polygon style="fill:#1D354F;" points="870.422,975.88 917.76,1057.495 1012.45,1057.495 1059.802,975.88 		"/>
		<polygon style="fill:#1D354F;" points="1176.11,975.88 1223.45,1057.495 1318.152,1057.495 1365.49,975.88 		"/>
		<polygon style="fill:#1D354F;" points="1481.8,975.88 1529.15,1057.495 1623.852,1057.495 1671.192,975.88 		"/>
		<polygon style="fill:#1D354F;" points="1787.5,975.88 1834.84,1057.495 1929.54,1057.495 1976.88,975.88 		"/>
		<polygon style="fill:#1D354F;" points="2093.187,975.88 2140.527,1057.495 2235.229,1057.495 2282.567,975.88 		"/>
		<polygon style="fill:#1D354F;" points="2398.877,975.88 2446.215,1057.495 2540.917,1057.495 2588.257,975.88 		"/>
		<polygon style="fill:#1D354F;" points="2704.565,975.88 2751.927,1057.495 2846.607,1057.495 2893.945,975.88 		"/>
		<polygon style="fill:#1D354F;" points="106.19,886.768 153.54,968.385 248.23,968.385 295.58,886.768 		"/>
		<polygon style="fill:#1D354F;" points="411.89,886.768 459.227,968.385 553.917,968.385 601.27,886.768 		"/>
		<polygon style="fill:#1D354F;" points="717.577,886.768 764.917,968.385 859.607,968.385 906.957,886.768 		"/>
		<polygon style="fill:#1D354F;" points="1023.267,886.768 1070.605,968.385 1165.295,968.385 1212.647,886.768 		"/>
		<polygon style="fill:#1D354F;" points="1328.955,886.768 1376.305,968.385 1470.995,968.385 1518.335,886.768 		"/>
		<polygon style="fill:#1D354F;" points="1634.642,886.768 1682.007,968.385 1776.685,968.385 1824.022,886.768 		"/>
		<polygon style="fill:#1D354F;" points="1940.332,886.768 1987.695,968.385 2082.372,968.385 2129.737,886.768 		"/>
		<polygon style="fill:#1D354F;" points="2246.045,886.768 2293.385,968.385 2388.062,968.385 2435.425,886.768 		"/>
		<polygon style="fill:#1D354F;" points="2551.732,886.768 2599.072,968.385 2693.75,968.385 2741.112,886.768 		"/>
		<polygon style="fill:#1D354F;" points="3000,886.768 2857.422,886.768 2904.76,968.385 2999.462,968.385 3000,967.432 		"/>
		<polygon style="fill:#1D354F;" points="0,797.657 0,878.075 0.695,879.273 95.385,879.273 142.725,797.657 		"/>
		<polygon style="fill:#1D354F;" points="259.032,797.657 306.385,879.273 401.075,879.273 448.425,797.657 		"/>
		<polygon style="fill:#1D354F;" points="564.735,797.657 612.072,879.273 706.762,879.273 754.115,797.657 		"/>
		<polygon style="fill:#1D354F;" points="870.422,797.657 917.76,879.273 1012.45,879.273 1059.802,797.657 		"/>
		<polygon style="fill:#1D354F;" points="1176.11,797.657 1223.45,879.273 1318.152,879.273 1365.49,797.657 		"/>
		<polygon style="fill:#1D354F;" points="1481.8,797.657 1529.15,879.273 1623.852,879.273 1671.192,797.657 		"/>
		<polygon style="fill:#1D354F;" points="1787.5,797.657 1834.84,879.273 1929.54,879.273 1976.88,797.657 		"/>
		<polygon style="fill:#1D354F;" points="2093.187,797.657 2140.527,879.273 2235.229,879.273 2282.567,797.657 		"/>
		<polygon style="fill:#1D354F;" points="2398.877,797.657 2446.215,879.273 2540.917,879.273 2588.257,797.657 		"/>
		<polygon style="fill:#1D354F;" points="2704.565,797.657 2751.927,879.273 2846.607,879.273 2893.945,797.657 		"/>
		<polygon style="fill:#1D354F;" points="106.19,708.557 153.54,790.16 248.23,790.16 295.58,708.557 		"/>
		<polygon style="fill:#1D354F;" points="411.89,708.557 459.227,790.16 553.917,790.16 601.27,708.557 		"/>
		<polygon style="fill:#1D354F;" points="717.577,708.557 764.917,790.16 859.607,790.16 906.957,708.557 		"/>
		<polygon style="fill:#1D354F;" points="1023.267,708.557 1070.605,790.16 1165.295,790.16 1212.647,708.557 		"/>
		<polygon style="fill:#1D354F;" points="1328.955,708.557 1376.305,790.16 1470.995,790.16 1518.335,708.557 		"/>
		<polygon style="fill:#1D354F;" points="1634.642,708.557 1682.007,790.16 1776.685,790.16 1824.022,708.557 		"/>
		<polygon style="fill:#1D354F;" points="1940.332,708.557 1987.695,790.16 2082.372,790.16 2129.737,708.557 		"/>
		<polygon style="fill:#1D354F;" points="2246.045,708.557 2293.385,790.16 2388.062,790.16 2435.425,708.557 		"/>
		<polygon style="fill:#1D354F;" points="2551.732,708.557 2599.072,790.16 2693.75,790.16 2741.112,708.557 		"/>
		<polygon style="fill:#1D354F;" points="3000,708.557 2857.422,708.557 2904.76,790.16 2999.462,790.16 3000,789.232 		"/>
		<polygon style="fill:#1D354F;" points="0,619.445 0,699.865 0.695,701.063 95.385,701.063 142.725,619.445 		"/>
		<polygon style="fill:#1D354F;" points="259.032,619.445 306.385,701.063 401.075,701.063 448.425,619.445 		"/>
		<polygon style="fill:#1D354F;" points="564.735,619.445 612.072,701.063 706.762,701.063 754.115,619.445 		"/>
		<polygon style="fill:#1D354F;" points="870.422,619.445 917.76,701.063 1012.45,701.063 1059.802,619.445 		"/>
		<polygon style="fill:#1D354F;" points="1176.11,619.445 1223.45,701.063 1318.152,701.063 1365.49,619.445 		"/>
		<polygon style="fill:#1D354F;" points="1481.8,619.445 1529.15,701.063 1623.852,701.063 1671.192,619.445 		"/>
		<polygon style="fill:#1D354F;" points="1787.5,619.445 1834.84,701.063 1929.54,701.063 1976.88,619.445 		"/>
		<polygon style="fill:#1D354F;" points="2093.187,619.445 2140.527,701.063 2235.229,701.063 2282.567,619.445 		"/>
		<polygon style="fill:#1D354F;" points="2398.877,619.445 2446.215,701.063 2540.917,701.063 2588.257,619.445 		"/>
		<polygon style="fill:#1D354F;" points="2704.565,619.445 2751.927,701.063 2846.607,701.063 2893.945,619.445 		"/>
		<polygon style="fill:#1D354F;" points="106.19,530.347 153.54,611.963 248.23,611.963 295.58,530.347 		"/>
		<polygon style="fill:#1D354F;" points="411.89,530.347 459.227,611.963 553.917,611.963 601.27,530.347 		"/>
		<polygon style="fill:#1D354F;" points="717.577,530.347 764.917,611.963 859.607,611.963 906.957,530.347 		"/>
		<polygon style="fill:#1D354F;" points="1023.267,530.347 1070.605,611.963 1165.295,611.963 1212.647,530.347 		"/>
		<polygon style="fill:#1D354F;" points="1328.955,530.347 1376.305,611.963 1470.995,611.963 1518.335,530.347 		"/>
		<polygon style="fill:#1D354F;" points="1634.642,530.347 1682.007,611.963 1776.685,611.963 1824.022,530.347 		"/>
		<polygon style="fill:#1D354F;" points="1940.332,530.347 1987.695,611.963 2082.372,611.963 2129.737,530.347 		"/>
		<polygon style="fill:#1D354F;" points="2246.045,530.347 2293.385,611.963 2388.062,611.963 2435.425,530.347 		"/>
		<polygon style="fill:#1D354F;" points="2551.732,530.347 2599.072,611.963 2693.75,611.963 2741.112,530.347 		"/>
		<polygon style="fill:#1D354F;" points="3000,530.347 2857.422,530.347 2904.76,611.963 2999.462,611.963 3000,611.01 		"/>
		<polygon style="fill:#1D354F;" points="0,441.235 0,521.655 0.695,522.852 95.385,522.852 142.725,441.235 		"/>
		<polygon style="fill:#1D354F;" points="259.032,441.235 306.385,522.852 401.075,522.852 448.425,441.235 		"/>
		<polygon style="fill:#1D354F;" points="564.735,441.235 612.072,522.852 706.762,522.852 754.115,441.235 		"/>
		<polygon style="fill:#1D354F;" points="870.422,441.235 917.76,522.852 1012.45,522.852 1059.802,441.235 		"/>
		<polygon style="fill:#1D354F;" points="1176.11,441.235 1223.45,522.852 1318.152,522.852 1365.49,441.235 		"/>
		<polygon style="fill:#1D354F;" points="1481.8,441.235 1529.15,522.852 1623.852,522.852 1671.192,441.235 		"/>
		<polygon style="fill:#1D354F;" points="1787.5,441.235 1834.84,522.852 1929.54,522.852 1976.88,441.235 		"/>
		<polygon style="fill:#1D354F;" points="2093.187,441.235 2140.527,522.852 2235.229,522.852 2282.567,441.235 		"/>
		<polygon style="fill:#1D354F;" points="2398.877,441.235 2446.215,522.852 2540.917,522.852 2588.257,441.235 		"/>
		<polygon style="fill:#1D354F;" points="2704.565,441.235 2751.927,522.852 2846.607,522.852 2893.945,441.235 		"/>
		<polygon style="fill:#1D354F;" points="106.19,352.135 153.54,433.753 248.23,433.753 295.58,352.135 		"/>
		<polygon style="fill:#1D354F;" points="411.89,352.135 459.227,433.753 553.917,433.753 601.27,352.135 		"/>
		<polygon style="fill:#1D354F;" points="717.577,352.135 764.917,433.753 859.607,433.753 906.957,352.135 		"/>
		<polygon style="fill:#1D354F;" points="1023.267,352.135 1070.605,433.753 1165.295,433.753 1212.647,352.135 		"/>
		<polygon style="fill:#1D354F;" points="1328.955,352.135 1376.305,433.753 1470.995,433.753 1518.335,352.135 		"/>
		<polygon style="fill:#1D354F;" points="1634.642,352.135 1682.007,433.753 1776.685,433.753 1824.022,352.135 		"/>
		<polygon style="fill:#1D354F;" points="1940.332,352.135 1987.695,433.753 2082.372,433.753 2129.737,352.135 		"/>
		<polygon style="fill:#1D354F;" points="2246.045,352.135 2293.385,433.753 2388.062,433.753 2435.425,352.135 		"/>
		<polygon style="fill:#1D354F;" points="2551.732,352.135 2599.072,433.753 2693.75,433.753 2741.112,352.135 		"/>
		<polygon style="fill:#1D354F;" points="3000,352.135 2857.422,352.135 2904.76,433.753 2999.462,433.753 3000,432.8 		"/>
		<polygon style="fill:#1D354F;" points="0,263.025 0,343.445 0.695,344.64 95.385,344.64 142.725,263.025 		"/>
		<polygon style="fill:#1D354F;" points="259.032,263.025 306.385,344.64 401.075,344.64 448.425,263.025 		"/>
		<polygon style="fill:#1D354F;" points="564.735,263.025 612.072,344.64 706.762,344.64 754.115,263.025 		"/>
		<polygon style="fill:#1D354F;" points="870.422,263.025 917.76,344.64 1012.45,344.64 1059.802,263.025 		"/>
		<polygon style="fill:#1D354F;" points="1176.11,263.025 1223.45,344.64 1318.152,344.64 1365.49,263.025 		"/>
		<polygon style="fill:#1D354F;" points="1481.8,263.025 1529.15,344.64 1623.852,344.64 1671.192,263.025 		"/>
		<polygon style="fill:#1D354F;" points="1787.5,263.025 1834.84,344.64 1929.54,344.64 1976.88,263.025 		"/>
		<polygon style="fill:#1D354F;" points="2093.187,263.025 2140.527,344.64 2235.229,344.64 2282.567,263.025 		"/>
		<polygon style="fill:#1D354F;" points="2398.877,263.025 2446.215,344.64 2540.917,344.64 2588.257,263.025 		"/>
		<polygon style="fill:#1D354F;" points="2704.565,263.025 2751.927,344.64 2846.607,344.64 2893.945,263.025 		"/>
		<polygon style="fill:#1D354F;" points="106.19,173.925 153.54,255.543 248.23,255.543 295.58,173.925 		"/>
		<polygon style="fill:#1D354F;" points="411.89,173.925 459.227,255.543 553.917,255.543 601.27,173.925 		"/>
		<polygon style="fill:#1D354F;" points="717.577,173.925 764.917,255.543 859.607,255.543 906.957,173.925 		"/>
		<polygon style="fill:#1D354F;" points="1023.267,173.925 1070.605,255.543 1165.295,255.543 1212.647,173.925 		"/>
		<polygon style="fill:#1D354F;" points="1328.955,173.925 1376.305,255.543 1470.995,255.543 1518.335,173.925 		"/>
		<polygon style="fill:#1D354F;" points="1634.642,173.925 1682.007,255.543 1776.685,255.543 1824.022,173.925 		"/>
		<polygon style="fill:#1D354F;" points="1940.332,173.925 1987.695,255.543 2082.372,255.543 2129.737,173.925 		"/>
		<polygon style="fill:#1D354F;" points="2246.045,173.925 2293.385,255.543 2388.062,255.543 2435.425,173.925 		"/>
		<polygon style="fill:#1D354F;" points="2551.732,173.925 2599.072,255.543 2693.75,255.543 2741.112,173.925 		"/>
		<polygon style="fill:#1D354F;" points="3000,173.925 2857.422,173.925 2904.76,255.543 2999.462,255.543 3000,254.59 		"/>
		<polygon style="fill:#1D354F;" points="0,84.815 0,165.235 0.695,166.43 95.385,166.43 142.725,84.815 		"/>
		<polygon style="fill:#1D354F;" points="259.032,84.815 306.385,166.43 401.075,166.43 448.425,84.815 		"/>
		<polygon style="fill:#1D354F;" points="564.735,84.815 612.072,166.43 706.762,166.43 754.115,84.815 		"/>
		<polygon style="fill:#1D354F;" points="870.422,84.815 917.76,166.43 1012.45,166.43 1059.802,84.815 		"/>
		<polygon style="fill:#1D354F;" points="1176.11,84.815 1223.45,166.43 1318.152,166.43 1365.49,84.815 		"/>
		<polygon style="fill:#1D354F;" points="1481.8,84.815 1529.15,166.43 1623.852,166.43 1671.192,84.815 		"/>
		<polygon style="fill:#1D354F;" points="1787.5,84.815 1834.84,166.43 1929.54,166.43 1976.88,84.815 		"/>
		<polygon style="fill:#1D354F;" points="2093.187,84.815 2140.527,166.43 2235.229,166.43 2282.567,84.815 		"/>
		<polygon style="fill:#1D354F;" points="2398.877,84.815 2446.215,166.43 2540.917,166.43 2588.257,84.815 		"/>
		<polygon style="fill:#1D354F;" points="2704.565,84.815 2751.927,166.43 2846.607,166.43 2893.945,84.815 		"/>
		<polygon style="fill:#1D354F;" points="108.68,0 153.54,77.333 248.23,77.333 293.09,0 		"/>
		<polygon style="fill:#1D354F;" points="414.367,0 459.227,77.333 553.917,77.333 598.78,0 		"/>
		<polygon style="fill:#1D354F;" points="720.055,0 764.917,77.333 859.607,77.333 904.467,0 		"/>
		<polygon style="fill:#1D354F;" points="1025.757,0 1070.605,77.333 1165.295,77.333 1210.157,0 		"/>
		<polygon style="fill:#1D354F;" points="1331.445,0 1376.305,77.333 1470.995,77.333 1515.857,0 		"/>
		<polygon style="fill:#1D354F;" points="1637.135,0 1682.007,77.333 1776.685,77.333 1821.557,0 		"/>
		<polygon style="fill:#1D354F;" points="1942.822,0 1987.695,77.333 2082.372,77.333 2127.245,0 		"/>
		<polygon style="fill:#1D354F;" points="2248.51,0 2293.385,77.333 2388.062,77.333 2432.935,0 		"/>
		<polygon style="fill:#1D354F;" points="2554.2,0 2599.072,77.333 2693.75,77.333 2738.622,0 		"/>
		<polygon style="fill:#1D354F;" points="3000,0 2859.887,0 2904.76,77.333 2999.462,77.333 3000,76.38 		"/>
		<polygon style="fill:#1D354F;" points="130.077,1500 92.102,1434.545 3.967,1434.545 0,1441.407 0,1500 		"/>
		<polygon style="fill:#1D354F;" points="435.767,1500 397.802,1434.545 309.667,1434.545 271.692,1500 		"/>
		<polygon style="fill:#1D354F;" points="741.455,1500 703.49,1434.545 615.357,1434.545 577.38,1500 		"/>
		<polygon style="fill:#1D354F;" points="1047.142,1500 1009.18,1434.545 921.045,1434.545 883.07,1500 		"/>
		<polygon style="fill:#1D354F;" points="1352.845,1500 1314.867,1434.545 1226.732,1434.545 1188.757,1500 		"/>
		<polygon style="fill:#1D354F;" points="1658.52,1500 1620.557,1434.545 1532.422,1434.545 1494.457,1500 		"/>
		<polygon style="fill:#1D354F;" points="1964.21,1500 1926.245,1434.545 1838.11,1434.545 1800.147,1500 		"/>
		<polygon style="fill:#1D354F;" points="2269.922,1500 2231.932,1434.545 2143.822,1434.545 2105.835,1500 		"/>
		<polygon style="fill:#1D354F;" points="2575.61,1500 2537.622,1434.545 2449.512,1434.545 2411.522,1500 		"/>
		<polygon style="fill:#1D354F;" points="2881.3,1500 2843.335,1434.545 2755.2,1434.545 2717.212,1500 		"/>
		<polygon style="fill:#1D354F;" points="156.812,1497.363 112.757,1421.387 156.812,1345.435 244.947,1345.435 289.012,1421.387 
			244.947,1497.363 		"/>
		<polygon style="fill:#1D354F;" points="462.512,1497.363 418.445,1421.387 462.512,1345.435 550.647,1345.435 594.702,1421.387 
			550.647,1497.363 		"/>
		<polygon style="fill:#1D354F;" points="768.2,1497.363 724.132,1421.387 768.2,1345.435 856.335,1345.435 900.39,1421.387 
			856.335,1497.363 		"/>
		<polygon style="fill:#1D354F;" points="1073.89,1497.363 1029.822,1421.387 1073.89,1345.435 1162.025,1345.435 
			1206.092,1421.387 1162.025,1497.363 		"/>
		<polygon style="fill:#1D354F;" points="1379.577,1497.363 1335.522,1421.387 1379.577,1345.435 1467.712,1345.435 
			1511.78,1421.387 1467.712,1497.363 		"/>
		<polygon style="fill:#1D354F;" points="1685.277,1497.363 1641.21,1421.387 1685.277,1345.435 1773.412,1345.435 
			1817.455,1421.387 1773.412,1497.363 		"/>
		<polygon style="fill:#1D354F;" points="1990.967,1497.363 1946.9,1421.387 1990.967,1345.435 2079.102,1345.435 2123.17,1421.387 
			2079.102,1497.363 		"/>
		<polygon style="fill:#1D354F;" points="2296.655,1497.363 2252.587,1421.387 2296.655,1345.435 2384.79,1345.435 
			2428.857,1421.387 2384.79,1497.363 		"/>
		<polygon style="fill:#1D354F;" points="2602.344,1497.363 2558.277,1421.387 2602.344,1345.435 2690.477,1345.435 
			2734.545,1421.387 2690.477,1497.363 		"/>
		<polygon style="fill:#1D354F;" points="3000,1352.027 2996.167,1345.435 2908.032,1345.435 2863.965,1421.387 2908.032,1497.363 
			2996.167,1497.363 3000,1490.772 		"/>
		<polygon style="fill:#1D354F;" points="92.102,1256.323 3.967,1256.323 0,1263.182 0,1401.415 3.967,1408.252 92.102,1408.252 
			136.17,1332.3 		"/>
		<polygon style="fill:#1D354F;" points="309.667,1408.252 265.6,1332.3 309.667,1256.323 397.802,1256.323 441.857,1332.3 
			397.802,1408.252 		"/>
		<polygon style="fill:#1D354F;" points="615.357,1408.252 571.29,1332.3 615.357,1256.323 703.49,1256.323 747.547,1332.3 
			703.49,1408.252 		"/>
		<polygon style="fill:#1D354F;" points="921.045,1408.252 876.977,1332.3 921.045,1256.323 1009.18,1256.323 1053.235,1332.3 
			1009.18,1408.252 		"/>
		<polygon style="fill:#1D354F;" points="1226.732,1408.252 1182.665,1332.3 1226.732,1256.323 1314.867,1256.323 1358.935,1332.3 
			1314.867,1408.252 		"/>
		<polygon style="fill:#1D354F;" points="1532.422,1408.252 1488.367,1332.3 1532.422,1256.323 1620.557,1256.323 1664.625,1332.3 
			1620.557,1408.252 		"/>
		<polygon style="fill:#1D354F;" points="1838.11,1408.252 1794.042,1332.3 1838.11,1256.323 1926.245,1256.323 1970.312,1332.3 
			1926.245,1408.252 		"/>
		<polygon style="fill:#1D354F;" points="2143.822,1408.252 2099.755,1332.3 2143.822,1256.323 2231.932,1256.323 2276,1332.3 
			2231.932,1408.252 		"/>
		<polygon style="fill:#1D354F;" points="2449.512,1408.252 2405.445,1332.3 2449.512,1256.323 2537.622,1256.323 2581.69,1332.3 
			2537.622,1408.252 		"/>
		<polygon style="fill:#1D354F;" points="2755.2,1408.252 2711.132,1332.3 2755.2,1256.323 2843.335,1256.323 2887.377,1332.3 
			2843.335,1408.252 		"/>
		<polygon style="fill:#1D354F;" points="156.812,1319.14 112.757,1243.188 156.812,1167.238 244.947,1167.238 289.012,1243.188 
			244.947,1319.14 		"/>
		<polygon style="fill:#1D354F;" points="462.512,1319.14 418.445,1243.188 462.512,1167.238 550.647,1167.238 594.702,1243.188 
			550.647,1319.14 		"/>
		<polygon style="fill:#1D354F;" points="768.2,1319.14 724.132,1243.188 768.2,1167.238 856.335,1167.238 900.39,1243.188 
			856.335,1319.14 		"/>
		<polygon style="fill:#1D354F;" points="1073.89,1319.14 1029.822,1243.188 1073.89,1167.238 1162.025,1167.238 1206.092,1243.188 
			1162.025,1319.14 		"/>
		<polygon style="fill:#1D354F;" points="1379.577,1319.14 1335.522,1243.188 1379.577,1167.238 1467.712,1167.238 
			1511.78,1243.188 1467.712,1319.14 		"/>
		<polygon style="fill:#1D354F;" points="1685.277,1319.14 1641.21,1243.188 1685.277,1167.238 1773.412,1167.238 
			1817.455,1243.188 1773.412,1319.14 		"/>
		<polygon style="fill:#1D354F;" points="1990.967,1319.14 1946.9,1243.188 1990.967,1167.238 2079.102,1167.238 2123.17,1243.188 
			2079.102,1319.14 		"/>
		<polygon style="fill:#1D354F;" points="2296.655,1319.14 2252.587,1243.188 2296.655,1167.238 2384.79,1167.238 
			2428.857,1243.188 2384.79,1319.14 		"/>
		<polygon style="fill:#1D354F;" points="2602.344,1319.14 2558.277,1243.188 2602.344,1167.238 2690.477,1167.238 
			2734.545,1243.188 2690.477,1319.14 		"/>
		<polygon style="fill:#1D354F;" points="3000,1173.828 2996.167,1167.238 2908.032,1167.238 2863.965,1243.188 2908.032,1319.14 
			2996.167,1319.14 3000,1312.55 		"/>
		<polygon style="fill:#1D354F;" points="92.102,1078.125 3.967,1078.125 0,1084.96 0,1223.193 3.967,1230.052 92.102,1230.052 
			136.17,1154.078 		"/>
		<polygon style="fill:#1D354F;" points="309.667,1230.052 265.6,1154.078 309.667,1078.125 397.802,1078.125 441.857,1154.078 
			397.802,1230.052 		"/>
		<polygon style="fill:#1D354F;" points="615.357,1230.052 571.29,1154.078 615.357,1078.125 703.49,1078.125 747.547,1154.078 
			703.49,1230.052 		"/>
		<polygon style="fill:#1D354F;" points="921.045,1230.052 876.977,1154.078 921.045,1078.125 1009.18,1078.125 1053.235,1154.078 
			1009.18,1230.052 		"/>
		<polygon style="fill:#1D354F;" points="1226.732,1230.052 1182.665,1154.078 1226.732,1078.125 1314.867,1078.125 
			1358.935,1154.078 1314.867,1230.052 		"/>
		<polygon style="fill:#1D354F;" points="1532.422,1230.052 1488.367,1154.078 1532.422,1078.125 1620.557,1078.125 
			1664.625,1154.078 1620.557,1230.052 		"/>
		<polygon style="fill:#1D354F;" points="1838.11,1230.052 1794.042,1154.078 1838.11,1078.125 1926.245,1078.125 
			1970.312,1154.078 1926.245,1230.052 		"/>
		<polygon style="fill:#1D354F;" points="2143.822,1230.052 2099.755,1154.078 2143.822,1078.125 2231.932,1078.125 2276,1154.078 
			2231.932,1230.052 		"/>
		<polygon style="fill:#1D354F;" points="2449.512,1230.052 2405.445,1154.078 2449.512,1078.125 2537.622,1078.125 
			2581.69,1154.078 2537.622,1230.052 		"/>
		<polygon style="fill:#1D354F;" points="2755.2,1230.052 2711.132,1154.078 2755.2,1078.125 2843.335,1078.125 2887.377,1154.078 
			2843.335,1230.052 		"/>
		<polygon style="fill:#1D354F;" points="156.812,1140.943 112.757,1064.965 156.812,989.013 244.947,989.013 289.012,1064.965 
			244.947,1140.943 		"/>
		<polygon style="fill:#1D354F;" points="462.512,1140.943 418.445,1064.965 462.512,989.013 550.647,989.013 594.702,1064.965 
			550.647,1140.943 		"/>
		<polygon style="fill:#1D354F;" points="768.2,1140.943 724.132,1064.965 768.2,989.013 856.335,989.013 900.39,1064.965 
			856.335,1140.943 		"/>
		<polygon style="fill:#1D354F;" points="1073.89,1140.943 1029.822,1064.965 1073.89,989.013 1162.025,989.013 1206.092,1064.965 
			1162.025,1140.943 		"/>
		<polygon style="fill:#1D354F;" points="1379.577,1140.943 1335.522,1064.965 1379.577,989.013 1467.712,989.013 1511.78,1064.965 
			1467.712,1140.943 		"/>
		<polygon style="fill:#1D354F;" points="1685.277,1140.943 1641.21,1064.965 1685.277,989.013 1773.412,989.013 1817.455,1064.965 
			1773.412,1140.943 		"/>
		<polygon style="fill:#1D354F;" points="1990.967,1140.943 1946.9,1064.965 1990.967,989.013 2079.102,989.013 2123.17,1064.965 
			2079.102,1140.943 		"/>
		<polygon style="fill:#1D354F;" points="2296.655,1140.943 2252.587,1064.965 2296.655,989.013 2384.79,989.013 2428.857,1064.965 
			2384.79,1140.943 		"/>
		<polygon style="fill:#1D354F;" points="2602.344,1140.943 2558.277,1064.965 2602.344,989.013 2690.477,989.013 
			2734.545,1064.965 2690.477,1140.943 		"/>
		<polygon style="fill:#1D354F;" points="3000,995.605 2996.167,989.013 2908.032,989.013 2863.965,1064.965 2908.032,1140.943 
			2996.167,1140.943 3000,1134.35 		"/>
		<polygon style="fill:#1D354F;" points="92.102,899.903 3.967,899.903 0,906.763 0,1044.97 3.967,1051.83 92.102,1051.83 
			136.17,975.88 		"/>
		<polygon style="fill:#1D354F;" points="309.667,1051.83 265.6,975.88 309.667,899.903 397.802,899.903 441.857,975.88 
			397.802,1051.83 		"/>
		<polygon style="fill:#1D354F;" points="615.357,1051.83 571.29,975.88 615.357,899.903 703.49,899.903 747.547,975.88 
			703.49,1051.83 		"/>
		<polygon style="fill:#1D354F;" points="921.045,1051.83 876.977,975.88 921.045,899.903 1009.18,899.903 1053.235,975.88 
			1009.18,1051.83 		"/>
		<polygon style="fill:#1D354F;" points="1226.732,1051.83 1182.665,975.88 1226.732,899.903 1314.867,899.903 1358.935,975.88 
			1314.867,1051.83 		"/>
		<polygon style="fill:#1D354F;" points="1532.422,1051.83 1488.367,975.88 1532.422,899.903 1620.557,899.903 1664.625,975.88 
			1620.557,1051.83 		"/>
		<polygon style="fill:#1D354F;" points="1838.11,1051.83 1794.042,975.88 1838.11,899.903 1926.245,899.903 1970.312,975.88 
			1926.245,1051.83 		"/>
		<polygon style="fill:#1D354F;" points="2143.822,1051.83 2099.755,975.88 2143.822,899.903 2231.932,899.903 2276,975.88 
			2231.932,1051.83 		"/>
		<polygon style="fill:#1D354F;" points="2449.512,1051.83 2405.445,975.88 2449.512,899.903 2537.622,899.903 2581.69,975.88 
			2537.622,1051.83 		"/>
		<polygon style="fill:#1D354F;" points="2755.2,1051.83 2711.132,975.88 2755.2,899.903 2843.335,899.903 2887.377,975.88 
			2843.335,1051.83 		"/>
		<polygon style="fill:#1D354F;" points="156.812,962.72 112.757,886.768 156.812,810.79 244.947,810.79 289.012,886.768 
			244.947,962.72 		"/>
		<polygon style="fill:#1D354F;" points="462.512,962.72 418.445,886.768 462.512,810.79 550.647,810.79 594.702,886.768 
			550.647,962.72 		"/>
		<polygon style="fill:#1D354F;" points="768.2,962.72 724.132,886.768 768.2,810.79 856.335,810.79 900.39,886.768 856.335,962.72 
					"/>
		<polygon style="fill:#1D354F;" points="1073.89,962.72 1029.822,886.768 1073.89,810.79 1162.025,810.79 1206.092,886.768 
			1162.025,962.72 		"/>
		<polygon style="fill:#1D354F;" points="1379.577,962.72 1335.522,886.768 1379.577,810.79 1467.712,810.79 1511.78,886.768 
			1467.712,962.72 		"/>
		<polygon style="fill:#1D354F;" points="1685.277,962.72 1641.21,886.768 1685.277,810.79 1773.412,810.79 1817.455,886.768 
			1773.412,962.72 		"/>
		<polygon style="fill:#1D354F;" points="1990.967,962.72 1946.9,886.768 1990.967,810.79 2079.102,810.79 2123.17,886.768 
			2079.102,962.72 		"/>
		<polygon style="fill:#1D354F;" points="2296.655,962.72 2252.587,886.768 2296.655,810.79 2384.79,810.79 2428.857,886.768 
			2384.79,962.72 		"/>
		<polygon style="fill:#1D354F;" points="2602.344,962.72 2558.277,886.768 2602.344,810.79 2690.477,810.79 2734.545,886.768 
			2690.477,962.72 		"/>
		<polygon style="fill:#1D354F;" points="3000,817.383 2996.167,810.79 2908.032,810.79 2863.965,886.768 2908.032,962.72 
			2996.167,962.72 3000,956.128 		"/>
		<polygon style="fill:#1D354F;" points="92.102,721.693 3.967,721.693 0,728.552 0,866.773 3.967,873.607 92.102,873.607 
			136.17,797.657 		"/>
		<polygon style="fill:#1D354F;" points="309.667,873.607 265.6,797.657 309.667,721.693 397.802,721.693 441.857,797.657 
			397.802,873.607 		"/>
		<polygon style="fill:#1D354F;" points="615.357,873.607 571.29,797.657 615.357,721.693 703.49,721.693 747.547,797.657 
			703.49,873.607 		"/>
		<polygon style="fill:#1D354F;" points="921.045,873.607 876.977,797.657 921.045,721.693 1009.18,721.693 1053.235,797.657 
			1009.18,873.607 		"/>
		<polygon style="fill:#1D354F;" points="1226.732,873.607 1182.665,797.657 1226.732,721.693 1314.867,721.693 1358.935,797.657 
			1314.867,873.607 		"/>
		<polygon style="fill:#1D354F;" points="1532.422,873.607 1488.367,797.657 1532.422,721.693 1620.557,721.693 1664.625,797.657 
			1620.557,873.607 		"/>
		<polygon style="fill:#1D354F;" points="1838.11,873.607 1794.042,797.657 1838.11,721.693 1926.245,721.693 1970.312,797.657 
			1926.245,873.607 		"/>
		<polygon style="fill:#1D354F;" points="2143.822,873.607 2099.755,797.657 2143.822,721.693 2231.932,721.693 2276,797.657 
			2231.932,873.607 		"/>
		<polygon style="fill:#1D354F;" points="2449.512,873.607 2405.445,797.657 2449.512,721.693 2537.622,721.693 2581.69,797.657 
			2537.622,873.607 		"/>
		<polygon style="fill:#1D354F;" points="2755.2,873.607 2711.132,797.657 2755.2,721.693 2843.335,721.693 2887.377,797.657 
			2843.335,873.607 		"/>
		<polygon style="fill:#1D354F;" points="156.812,784.523 112.757,708.557 156.812,632.593 244.947,632.593 289.012,708.557 
			244.947,784.523 		"/>
		<polygon style="fill:#1D354F;" points="462.512,784.523 418.445,708.557 462.512,632.593 550.647,632.593 594.702,708.557 
			550.647,784.523 		"/>
		<polygon style="fill:#1D354F;" points="768.2,784.523 724.132,708.557 768.2,632.593 856.335,632.593 900.39,708.557 
			856.335,784.523 		"/>
		<polygon style="fill:#1D354F;" points="1073.89,784.523 1029.822,708.557 1073.89,632.593 1162.025,632.593 1206.092,708.557 
			1162.025,784.523 		"/>
		<polygon style="fill:#1D354F;" points="1379.577,784.523 1335.522,708.557 1379.577,632.593 1467.712,632.593 1511.78,708.557 
			1467.712,784.523 		"/>
		<polygon style="fill:#1D354F;" points="1685.277,784.523 1641.21,708.557 1685.277,632.593 1773.412,632.593 1817.455,708.557 
			1773.412,784.523 		"/>
		<polygon style="fill:#1D354F;" points="1990.967,784.523 1946.9,708.557 1990.967,632.593 2079.102,632.593 2123.17,708.557 
			2079.102,784.523 		"/>
		<polygon style="fill:#1D354F;" points="2296.655,784.523 2252.587,708.557 2296.655,632.593 2384.79,632.593 2428.857,708.557 
			2384.79,784.523 		"/>
		<polygon style="fill:#1D354F;" points="2602.344,784.523 2558.277,708.557 2602.344,632.593 2690.477,632.593 2734.545,708.557 
			2690.477,784.523 		"/>
		<polygon style="fill:#1D354F;" points="3000,639.185 2996.167,632.593 2908.032,632.593 2863.965,708.557 2908.032,784.523 
			2996.167,784.523 3000,777.93 		"/>
		<polygon style="fill:#1D354F;" points="92.102,543.482 3.967,543.482 0,550.33 0,688.563 3.967,695.41 92.102,695.41 
			136.17,619.445 		"/>
		<polygon style="fill:#1D354F;" points="309.667,695.41 265.6,619.445 309.667,543.482 397.802,543.482 441.857,619.445 
			397.802,695.41 		"/>
		<polygon style="fill:#1D354F;" points="615.357,695.41 571.29,619.445 615.357,543.482 703.49,543.482 747.547,619.445 
			703.49,695.41 		"/>
		<polygon style="fill:#1D354F;" points="921.045,695.41 876.977,619.445 921.045,543.482 1009.18,543.482 1053.235,619.445 
			1009.18,695.41 		"/>
		<polygon style="fill:#1D354F;" points="1226.732,695.41 1182.665,619.445 1226.732,543.482 1314.867,543.482 1358.935,619.445 
			1314.867,695.41 		"/>
		<polygon style="fill:#1D354F;" points="1532.422,695.41 1488.367,619.445 1532.422,543.482 1620.557,543.482 1664.625,619.445 
			1620.557,695.41 		"/>
		<polygon style="fill:#1D354F;" points="1838.11,695.41 1794.042,619.445 1838.11,543.482 1926.245,543.482 1970.312,619.445 
			1926.245,695.41 		"/>
		<polygon style="fill:#1D354F;" points="2143.822,695.41 2099.755,619.445 2143.822,543.482 2231.932,543.482 2276,619.445 
			2231.932,695.41 		"/>
		<polygon style="fill:#1D354F;" points="2449.512,695.41 2405.445,619.445 2449.512,543.482 2537.622,543.482 2581.69,619.445 
			2537.622,695.41 		"/>
		<polygon style="fill:#1D354F;" points="2755.2,695.41 2711.132,619.445 2755.2,543.482 2843.335,543.482 2887.377,619.445 
			2843.335,695.41 		"/>
		<polygon style="fill:#1D354F;" points="156.812,606.3 112.757,530.347 156.812,454.383 244.947,454.383 289.012,530.347 
			244.947,606.3 		"/>
		<polygon style="fill:#1D354F;" points="462.512,606.3 418.445,530.347 462.512,454.383 550.647,454.383 594.702,530.347 
			550.647,606.3 		"/>
		<polygon style="fill:#1D354F;" points="768.2,606.3 724.132,530.347 768.2,454.383 856.335,454.383 900.39,530.347 856.335,606.3 
					"/>
		<polygon style="fill:#1D354F;" points="1073.89,606.3 1029.822,530.347 1073.89,454.383 1162.025,454.383 1206.092,530.347 
			1162.025,606.3 		"/>
		<polygon style="fill:#1D354F;" points="1379.577,606.3 1335.522,530.347 1379.577,454.383 1467.712,454.383 1511.78,530.347 
			1467.712,606.3 		"/>
		<polygon style="fill:#1D354F;" points="1685.277,606.3 1641.21,530.347 1685.277,454.383 1773.412,454.383 1817.455,530.347 
			1773.412,606.3 		"/>
		<polygon style="fill:#1D354F;" points="1990.967,606.3 1946.9,530.347 1990.967,454.383 2079.102,454.383 2123.17,530.347 
			2079.102,606.3 		"/>
		<polygon style="fill:#1D354F;" points="2296.655,606.3 2252.587,530.347 2296.655,454.383 2384.79,454.383 2428.857,530.347 
			2384.79,606.3 		"/>
		<polygon style="fill:#1D354F;" points="2602.344,606.3 2558.277,530.347 2602.344,454.383 2690.477,454.383 2734.545,530.347 
			2690.477,606.3 		"/>
		<polygon style="fill:#1D354F;" points="3000,460.975 2996.167,454.383 2908.032,454.383 2863.965,530.347 2908.032,606.3 
			2996.167,606.3 3000,599.708 		"/>
		<polygon style="fill:#1D354F;" points="92.102,365.27 3.967,365.27 0,372.133 0,510.353 3.967,517.2 92.102,517.2 136.17,441.235 
					"/>
		<polygon style="fill:#1D354F;" points="309.667,517.2 265.6,441.235 309.667,365.27 397.802,365.27 441.857,441.235 
			397.802,517.2 		"/>
		<polygon style="fill:#1D354F;" points="615.357,517.2 571.29,441.235 615.357,365.27 703.49,365.27 747.547,441.235 703.49,517.2 
					"/>
		<polygon style="fill:#1D354F;" points="921.045,517.2 876.977,441.235 921.045,365.27 1009.18,365.27 1053.235,441.235 
			1009.18,517.2 		"/>
		<polygon style="fill:#1D354F;" points="1226.732,517.2 1182.665,441.235 1226.732,365.27 1314.867,365.27 1358.935,441.235 
			1314.867,517.2 		"/>
		<polygon style="fill:#1D354F;" points="1532.422,517.2 1488.367,441.235 1532.422,365.27 1620.557,365.27 1664.625,441.235 
			1620.557,517.2 		"/>
		<polygon style="fill:#1D354F;" points="1838.11,517.2 1794.042,441.235 1838.11,365.27 1926.245,365.27 1970.312,441.235 
			1926.245,517.2 		"/>
		<polygon style="fill:#1D354F;" points="2143.822,517.2 2099.755,441.235 2143.822,365.27 2231.932,365.27 2276,441.235 
			2231.932,517.2 		"/>
		<polygon style="fill:#1D354F;" points="2449.512,517.2 2405.445,441.235 2449.512,365.27 2537.622,365.27 2581.69,441.235 
			2537.622,517.2 		"/>
		<polygon style="fill:#1D354F;" points="2755.2,517.2 2711.132,441.235 2755.2,365.27 2843.335,365.27 2887.377,441.235 
			2843.335,517.2 		"/>
		<polygon style="fill:#1D354F;" points="156.812,428.087 112.757,352.135 156.812,276.173 244.947,276.173 289.012,352.135 
			244.947,428.087 		"/>
		<polygon style="fill:#1D354F;" points="462.512,428.087 418.445,352.135 462.512,276.173 550.647,276.173 594.702,352.135 
			550.647,428.087 		"/>
		<polygon style="fill:#1D354F;" points="768.2,428.087 724.132,352.135 768.2,276.173 856.335,276.173 900.39,352.135 
			856.335,428.087 		"/>
		<polygon style="fill:#1D354F;" points="1073.89,428.087 1029.822,352.135 1073.89,276.173 1162.025,276.173 1206.092,352.135 
			1162.025,428.087 		"/>
		<polygon style="fill:#1D354F;" points="1379.577,428.087 1335.522,352.135 1379.577,276.173 1467.712,276.173 1511.78,352.135 
			1467.712,428.087 		"/>
		<polygon style="fill:#1D354F;" points="1685.277,428.087 1641.21,352.135 1685.277,276.173 1773.412,276.173 1817.455,352.135 
			1773.412,428.087 		"/>
		<polygon style="fill:#1D354F;" points="1990.967,428.087 1946.9,352.135 1990.967,276.173 2079.102,276.173 2123.17,352.135 
			2079.102,428.087 		"/>
		<polygon style="fill:#1D354F;" points="2296.655,428.087 2252.587,352.135 2296.655,276.173 2384.79,276.173 2428.857,352.135 
			2384.79,428.087 		"/>
		<polygon style="fill:#1D354F;" points="2602.344,428.087 2558.277,352.135 2602.344,276.173 2690.477,276.173 2734.545,352.135 
			2690.477,428.087 		"/>
		<polygon style="fill:#1D354F;" points="3000,282.763 2996.167,276.173 2908.032,276.173 2863.965,352.135 2908.032,428.087 
			2996.167,428.087 3000,421.497 		"/>
		<polygon style="fill:#1D354F;" points="92.102,187.06 3.967,187.06 0,193.92 0,332.14 3.967,338.99 92.102,338.99 136.17,263.025 
					"/>
		<polygon style="fill:#1D354F;" points="309.667,338.99 265.6,263.025 309.667,187.06 397.802,187.06 441.857,263.025 
			397.802,338.99 		"/>
		<polygon style="fill:#1D354F;" points="615.357,338.99 571.29,263.025 615.357,187.06 703.49,187.06 747.547,263.025 
			703.49,338.99 		"/>
		<polygon style="fill:#1D354F;" points="921.045,338.99 876.977,263.025 921.045,187.06 1009.18,187.06 1053.235,263.025 
			1009.18,338.99 		"/>
		<polygon style="fill:#1D354F;" points="1226.732,338.99 1182.665,263.025 1226.732,187.06 1314.867,187.06 1358.935,263.025 
			1314.867,338.99 		"/>
		<polygon style="fill:#1D354F;" points="1532.422,338.99 1488.367,263.025 1532.422,187.06 1620.557,187.06 1664.625,263.025 
			1620.557,338.99 		"/>
		<polygon style="fill:#1D354F;" points="1838.11,338.99 1794.042,263.025 1838.11,187.06 1926.245,187.06 1970.312,263.025 
			1926.245,338.99 		"/>
		<polygon style="fill:#1D354F;" points="2143.822,338.99 2099.755,263.025 2143.822,187.06 2231.932,187.06 2276,263.025 
			2231.932,338.99 		"/>
		<polygon style="fill:#1D354F;" points="2449.512,338.99 2405.445,263.025 2449.512,187.06 2537.622,187.06 2581.69,263.025 
			2537.622,338.99 		"/>
		<polygon style="fill:#1D354F;" points="2755.2,338.99 2711.132,263.025 2755.2,187.06 2843.335,187.06 2887.377,263.025 
			2843.335,338.99 		"/>
		<polygon style="fill:#1D354F;" points="156.812,249.878 112.757,173.925 156.812,97.963 244.947,97.963 289.012,173.925 
			244.947,249.878 		"/>
		<polygon style="fill:#1D354F;" points="462.512,249.878 418.445,173.925 462.512,97.963 550.647,97.963 594.702,173.925 
			550.647,249.878 		"/>
		<polygon style="fill:#1D354F;" points="768.2,249.878 724.132,173.925 768.2,97.963 856.335,97.963 900.39,173.925 
			856.335,249.878 		"/>
		<polygon style="fill:#1D354F;" points="1073.89,249.878 1029.822,173.925 1073.89,97.963 1162.025,97.963 1206.092,173.925 
			1162.025,249.878 		"/>
		<polygon style="fill:#1D354F;" points="1379.577,249.878 1335.522,173.925 1379.577,97.963 1467.712,97.963 1511.78,173.925 
			1467.712,249.878 		"/>
		<polygon style="fill:#1D354F;" points="1685.277,249.878 1641.21,173.925 1685.277,97.963 1773.412,97.963 1817.455,173.925 
			1773.412,249.878 		"/>
		<polygon style="fill:#1D354F;" points="1990.967,249.878 1946.9,173.925 1990.967,97.963 2079.102,97.963 2123.17,173.925 
			2079.102,249.878 		"/>
		<polygon style="fill:#1D354F;" points="2296.655,249.878 2252.587,173.925 2296.655,97.963 2384.79,97.963 2428.857,173.925 
			2384.79,249.878 		"/>
		<polygon style="fill:#1D354F;" points="2602.344,249.878 2558.277,173.925 2602.344,97.963 2690.477,97.963 2734.545,173.925 
			2690.477,249.878 		"/>
		<polygon style="fill:#1D354F;" points="3000,104.553 2996.167,97.963 2908.032,97.963 2863.965,173.925 2908.032,249.878 
			2996.167,249.878 3000,243.285 		"/>
		<polygon style="fill:#1D354F;" points="92.102,8.863 3.967,8.863 0,15.71 0,153.93 3.967,160.78 92.102,160.78 136.17,84.815 		
			"/>
		<polygon style="fill:#1D354F;" points="309.667,160.78 265.6,84.815 309.667,8.863 397.802,8.863 441.857,84.815 397.802,160.78 
					"/>
		<polygon style="fill:#1D354F;" points="615.357,160.78 571.29,84.815 615.357,8.863 703.49,8.863 747.547,84.815 703.49,160.78 		
			"/>
		<polygon style="fill:#1D354F;" points="921.045,160.78 876.977,84.815 921.045,8.863 1009.18,8.863 1053.235,84.815 
			1009.18,160.78 		"/>
		<polygon style="fill:#1D354F;" points="1226.732,160.78 1182.665,84.815 1226.732,8.863 1314.867,8.863 1358.935,84.815 
			1314.867,160.78 		"/>
		<polygon style="fill:#1D354F;" points="1532.422,160.78 1488.367,84.815 1532.422,8.863 1620.557,8.863 1664.625,84.815 
			1620.557,160.78 		"/>
		<polygon style="fill:#1D354F;" points="1838.11,160.78 1794.042,84.815 1838.11,8.863 1926.245,8.863 1970.312,84.815 
			1926.245,160.78 		"/>
		<polygon style="fill:#1D354F;" points="2143.822,160.78 2099.755,84.815 2143.822,8.863 2231.932,8.863 2276,84.815 
			2231.932,160.78 		"/>
		<polygon style="fill:#1D354F;" points="2449.512,160.78 2405.445,84.815 2449.512,8.863 2537.622,8.863 2581.69,84.815 
			2537.622,160.78 		"/>
		<polygon style="fill:#1D354F;" points="2755.2,160.78 2711.132,84.815 2755.2,8.863 2843.335,8.863 2887.377,84.815 
			2843.335,160.78 		"/>
		<polygon style="fill:#1D354F;" points="115.235,0 156.812,71.68 244.947,71.68 286.535,0 		"/>
		<polygon style="fill:#1D354F;" points="420.922,0 462.512,71.68 550.647,71.68 592.225,0 		"/>
		<polygon style="fill:#1D354F;" points="726.612,0 768.2,71.68 856.335,71.68 897.912,0 		"/>
		<polygon style="fill:#1D354F;" points="1032.312,0 1073.89,71.68 1162.025,71.68 1203.6,0 		"/>
		<polygon style="fill:#1D354F;" points="1338,0 1379.577,71.68 1467.712,71.68 1509.29,0 		"/>
		<polygon style="fill:#1D354F;" points="1643.7,0 1685.277,71.68 1773.412,71.68 1814.99,0 		"/>
		<polygon style="fill:#1D354F;" points="1949.39,0 1990.967,71.68 2079.102,71.68 2120.677,0 		"/>
		<polygon style="fill:#1D354F;" points="2255.077,0 2296.655,71.68 2384.79,71.68 2426.367,0 		"/>
		<polygon style="fill:#1D354F;" points="2560.767,0 2602.344,71.68 2690.477,71.68 2732.055,0 		"/>
		<polygon style="fill:#1D354F;" points="3000,0 2866.455,0 2908.032,71.68 2996.167,71.68 3000,65.088 		"/>
	</g>
	<linearGradient id="SVGID_1_" gradientUnits="userSpaceOnUse" x1="-9.54" y1="750.8425" x2="3010.1699" y2="750.8425">
		<stop  offset="0" style="stop-color:#FFFFFF"/>
		<stop  offset="0.3343" style="stop-color:#CDD3D8"/>
		<stop  offset="0.7855" style="stop-color:#8F9CA8"/>
		<stop  offset="1" style="stop-color:#778695"/>
	</linearGradient>
	<rect y="1.685" style="fill:url(#SVGID_1_);" width="3000" height="1498.315"/>
</g>
</svg>
