<?xml version="1.0" encoding="UTF-8"?>
<!DOCTYPE svg PUBLIC "-//W3C//DTD SVG 1.1//EN" "http://www.w3.org/Graphics/SVG/1.1/DTD/svg11.dtd">
<!-- Creator: CorelDRAW 2019 (64-Bit Evaluation Version) -->
<svg xmlns="http://www.w3.org/2000/svg" xml:space="preserve" width="11.6929in" height="8.26772in" version="1.1" style="shape-rendering:geometricPrecision; text-rendering:geometricPrecision; image-rendering:optimizeQuality; fill-rule:evenodd; clip-rule:evenodd"
viewBox="0 0 11692.91 8267.72"
 xmlns:xlink="http://www.w3.org/1999/xlink">
 <defs>
  <style type="text/css">
   <![CDATA[
    .fil0 {fill:#0C4D69}
    .fil1 {fill:#669140}
    .fil2 {fill:#0C4D69;fill-rule:nonzero}
    .fil3 {fill:#669140;fill-rule:nonzero}
   ]]>
  </style>
 </defs>
 <g id="Layer_x0020_1">
  <metadata id="CorelCorpID_0Corel-Layer"/>
  <g id="_2863065353280">
   <path class="fil0" d="M2973.54 3426.56c99.35,0 193.12,23.87 275.9,66.18l-144.94 173.71c-40.93,-14.6 -85.01,-22.57 -130.96,-22.57 -215.29,0 -389.81,174.52 -389.81,389.81 0,215.29 174.52,389.81 389.81,389.81 151.41,0 282.66,-86.33 347.22,-212.45l160.2 156.04c-108.55,164.87 -295.26,273.72 -507.41,273.72 -335.3,0 -607.12,-271.82 -607.12,-607.12 0,-335.3 271.82,-607.12 607.12,-607.12z"/>
   <path class="fil1" d="M3677.48 3426.66c335.3,0 607.12,271.82 607.12,607.12 0,335.3 -271.82,607.12 -607.12,607.12 -95.5,0 -185.84,-22.08 -266.22,-61.37l156.25 -171.7c34.88,10.24 71.78,15.76 109.97,15.76 215.29,0 389.81,-174.52 389.81,-389.81 0,-215.29 -174.52,-389.81 -389.81,-389.81 -215.29,0 -389.81,174.52 -389.81,389.81 0,44.26 7.39,86.78 20.98,126.43l-189.54 112.25c-31.36,-73.27 -48.75,-153.94 -48.75,-238.69 0,-335.3 271.82,-607.12 607.12,-607.12z"/>
   <circle class="fil0" cx="3677.48" cy="4033.78" r="211.68"/>
   <g>
    <path class="fil2" d="M4725.14 4107.02l109.26 6.74c-3.91,58.54 -22.53,106.16 -55.71,142.85 -33.18,36.82 -77.02,55.17 -131.38,55.17 -66.36,0 -116.94,-24.69 -151.75,-73.92 -34.67,-49.23 -52.07,-117.08 -52.07,-203.54 0,-87.14 17.27,-155.39 51.8,-204.63 34.53,-49.23 85.79,-73.92 153.77,-73.92 112.5,0 173.74,69.6 183.72,208.94l-108.45 7.96c-2.83,-80.39 -27.92,-120.59 -75.13,-120.59 -24.82,0 -44.51,12.95 -59.08,38.72 -14.7,25.9 -21.98,75.94 -21.98,150.26 0,66.5 6.74,112.09 20.23,137.05 13.35,24.95 33.59,37.36 60.43,37.36 43.3,0 68.66,-36.15 76.35,-108.45zm179.13 -343.16l327.78 0 0 92.26 -209.61 0 0 125.45 162.67 0 0 92.26 -162.67 0 0 133.54 209.61 0 0 96.31 -327.78 0 0 -539.82zm382 0l131.38 0 138.93 335.33 0 -335.33 91.45 0 0 539.82 -105.75 0 -164.56 -390.77 0 390.77 -91.45 0 0 -539.82zm398.19 0l335.87 0 0 100.36 -110.07 0 0 439.46 -118.16 0 0 -439.46 -107.64 0 0 -100.36zm377.69 0l169.42 0c32.78,0 58,1.48 75.54,4.59 17.54,2.97 35.2,11.2 53.15,24.42 17.8,13.35 31.83,31.56 41.95,54.63 10.12,23.06 15.24,48.96 15.24,77.69 0,67.44 -25.22,114.93 -75.67,142.31l99.14 236.19 -128.14 0 -72.17 -213.66 -60.3 0 0 213.66 -118.16 0 0 -539.82zm118.16 87.41l0 151.34 52.07 0c46.27,0 69.33,-25.9 69.33,-77.83 0,-17.94 -3.37,-32.64 -10.25,-44.11 -6.88,-11.46 -14.83,-19.15 -23.87,-23.33 -9.04,-4.05 -22.39,-6.07 -39.93,-6.07l-47.35 0zm417.75 -87.41l119.37 0 154.04 539.82 -121.13 0 -26.98 -111.69 -151.75 0 -26.57 111.69 -108.99 0 162 -539.82zm103.05 335.87l-54.49 -221.22 -52.34 221.22 106.83 0zm215.82 -335.87l118.16 0 0 439.46 174.81 0 0 100.36 -292.98 0 0 -539.82z"/>
    <path class="fil3" d="M7784.81 4033.51c0,185.47 -65.15,278.28 -195.59,278.28 -64.88,0 -113.84,-23.61 -146.76,-70.95 -32.91,-47.21 -49.37,-116.41 -49.37,-207.32 0,-185.2 65.29,-277.73 195.72,-277.73 63.67,0 112.36,23.2 145.81,69.6 33.45,46.26 50.18,115.73 50.18,208.13zm-124.64 0c0,-72.7 -5.67,-121.13 -17,-145.27 -11.46,-24.15 -29.54,-36.15 -54.36,-36.15 -24.69,0 -42.63,12.14 -54.09,36.42 -11.33,24.15 -17,72.57 -17,145 0,71.22 5.67,119.38 16.86,144.46 11.19,24.96 29.27,37.5 54.22,37.5 24.55,0 42.62,-12 54.09,-36.02 11.47,-24.01 17.27,-72.57 17.27,-145.95zm203.14 -269.64l131.38 0 138.93 335.33 0 -335.33 91.45 0 0 539.82 -105.75 0 -164.56 -390.77 0 390.77 -91.45 0 0 -539.82zm458.89 0l327.78 0 0 92.26 -209.61 0 0 125.45 162.67 0 0 92.26 -162.67 0 0 133.54 209.61 0 0 96.31 -327.78 0 0 -539.82z"/>
   </g>
  </g>
 </g>
</svg>
