<?xml version="1.0" encoding="UTF-8"?>
<!DOCTYPE svg PUBLIC "-//W3C//DTD SVG 1.1//EN" "http://www.w3.org/Graphics/SVG/1.1/DTD/svg11.dtd">
<!-- Creator: CorelDRAW 2019 (64-Bit Evaluation Version) -->
<svg xmlns="http://www.w3.org/2000/svg" xml:space="preserve" width="128" height="128" version="1.1" style="shape-rendering:geometricPrecision; text-rendering:geometricPrecision; image-rendering:optimizeQuality; fill-rule:evenodd; clip-rule:evenodd"
viewBox="0 0 11692.91 8267.72"
 xmlns:xlink="http://www.w3.org/1999/xlink">
 <defs>
  <style type="text/css">
   <![CDATA[
    .fil0 {fill:#0C4D69}
    .fil1 {fill:#669140}
   ]]>
  </style>
 </defs>
 <g id="Layer_x0020_1">
  <metadata id="CorelCorpID_0Corel-Layer"/>
  <path class="fil0" d="M2946.46 3307.69c115.93,0 225.34,27.85 321.94,77.22l-169.13 202.69c-47.77,-17.04 -99.2,-26.34 -152.81,-26.34 -251.2,0 -454.85,203.65 -454.85,454.85 0,251.21 203.65,454.85 454.85,454.85 176.68,0 329.83,-100.73 405.15,-247.89l186.93 182.07c-126.67,192.38 -344.52,319.39 -592.08,319.39 -391.25,0 -708.42,-317.17 -708.42,-708.42 0,-391.25 317.17,-708.42 708.42,-708.42z"/>
  <path class="fil1" d="M3767.86 3307.8c391.25,0 708.42,317.17 708.42,708.42 0,391.25 -317.17,708.42 -708.42,708.42 -111.44,0 -216.85,-25.76 -310.64,-71.61l182.32 -200.35c40.7,11.95 83.76,18.39 128.32,18.39 251.2,0 454.85,-203.65 454.85,-454.85 0,-251.21 -203.65,-454.85 -454.85,-454.85 -251.21,0 -454.85,203.64 -454.85,454.85 0,51.64 8.62,101.26 24.48,147.53l-221.17 130.98c-36.59,-85.49 -56.88,-179.63 -56.88,-278.51 0,-391.25 317.17,-708.42 708.42,-708.42z"/>
  <circle class="fil0" cx="3767.86" cy="4016.22" r="247"/>
 </g>
</svg>
